<svg id="svg" version="1.1" xmlns="http://www.w3.org/2000/svg" xmlns:xlink="http://www.w3.org/1999/xlink" width="400" height="531.6872427983539" viewBox="0, 0, 400,531.6872427983539"><g id="svgg"><path id="path0" d="M334.909 32.400 C 334.909 33.390,334.987 33.795,335.082 33.300 C 335.178 32.805,335.178 31.995,335.082 31.500 C 334.987 31.005,334.909 31.410,334.909 32.400 M127.400 238.235 C 126.740 238.313,120.080 238.445,112.600 238.529 C 98.676 238.684,93.321 239.309,92.343 240.892 C 91.589 242.112,91.257 249.240,90.995 269.800 C 90.774 287.152,90.600 290.822,89.936 292.100 C 89.648 292.653,89.737 292.800,90.357 292.800 C 93.312 292.800,93.424 297.441,93.822 436.200 C 93.942 478.000,94.122 512.480,94.222 512.822 C 94.524 513.852,97.949 514.764,102.400 514.999 C 110.188 515.410,113.185 515.599,116.700 515.900 C 118.625 516.065,145.580 516.191,176.600 516.179 C 229.032 516.159,236.512 516.055,262.789 514.975 C 266.219 514.834,268.619 514.544,269.390 514.178 C 270.056 513.862,271.914 513.438,273.517 513.237 C 275.121 513.036,276.657 512.685,276.930 512.458 C 277.204 512.231,278.564 511.862,279.954 511.638 C 281.343 511.415,282.705 511.045,282.980 510.816 C 283.256 510.588,284.363 510.288,285.440 510.149 C 286.518 510.010,287.961 509.560,288.647 509.148 C 289.333 508.737,290.369 508.400,290.949 508.400 C 291.528 508.400,292.674 508.040,293.494 507.601 C 294.314 507.161,295.567 506.692,296.278 506.559 C 296.990 506.425,297.780 506.065,298.035 505.758 C 298.290 505.451,298.802 505.200,299.174 505.200 C 299.546 505.200,301.665 504.300,303.883 503.200 C 306.101 502.100,308.115 501.200,308.358 501.200 C 308.601 501.200,308.800 501.059,308.800 500.888 C 308.800 500.716,309.295 500.362,309.900 500.101 C 310.505 499.841,311.900 499.089,313.000 498.431 C 314.100 497.773,315.360 497.067,315.800 496.863 C 316.905 496.349,324.037 491.555,325.948 490.041 C 326.810 489.358,327.650 488.800,327.814 488.800 C 327.979 488.800,329.062 487.990,330.221 487.000 C 331.379 486.010,332.522 485.200,332.760 485.200 C 332.998 485.200,333.418 484.840,333.693 484.400 C 333.968 483.960,334.338 483.600,334.516 483.600 C 334.694 483.600,335.882 482.565,337.156 481.300 C 338.430 480.035,340.896 477.636,342.636 475.968 C 348.260 470.579,352.927 465.439,356.770 460.400 C 357.861 458.970,359.034 457.485,359.376 457.100 C 359.719 456.715,360.000 456.234,360.000 456.031 C 360.000 455.828,360.405 455.151,360.900 454.528 C 362.085 453.035,362.694 452.064,363.385 450.568 C 363.698 449.891,364.234 449.104,364.577 448.819 C 364.920 448.535,365.200 448.023,365.200 447.683 C 365.200 447.342,365.481 446.753,365.824 446.373 C 366.418 445.717,367.927 442.930,370.789 437.200 C 371.503 435.770,372.428 433.934,372.844 433.121 C 373.260 432.307,373.600 431.402,373.600 431.110 C 373.600 430.817,373.912 430.133,374.294 429.589 C 374.929 428.685,375.820 426.499,376.814 423.406 C 377.025 422.749,377.475 421.629,377.813 420.917 C 378.570 419.320,379.809 414.518,380.191 411.700 C 380.347 410.546,380.628 409.506,380.814 409.391 C 381.131 409.196,381.381 407.896,381.785 404.351 C 381.876 403.554,382.220 402.024,382.550 400.951 C 384.384 394.979,384.126 358.316,382.228 355.245 C 382.075 354.998,381.791 353.252,381.596 351.365 C 381.402 349.477,381.053 347.705,380.822 347.426 C 380.590 347.147,380.289 346.037,380.153 344.960 C 380.016 343.882,379.670 342.623,379.384 342.163 C 379.098 341.702,378.674 340.299,378.442 339.045 C 378.210 337.791,377.746 336.373,377.410 335.893 C 377.075 335.414,376.794 334.657,376.787 334.211 C 376.781 333.765,376.332 332.500,375.791 331.400 C 375.250 330.300,374.806 329.107,374.804 328.749 C 374.802 328.391,374.530 327.874,374.200 327.600 C 373.870 327.326,373.600 326.808,373.600 326.448 C 373.600 326.088,373.150 324.948,372.600 323.915 C 372.050 322.882,371.600 321.690,371.600 321.267 C 371.600 320.844,371.342 320.283,371.026 320.021 C 370.710 319.759,370.326 318.972,370.174 318.272 C 370.021 317.573,369.559 316.571,369.148 316.046 C 368.737 315.521,368.400 314.859,368.400 314.575 C 368.400 314.290,368.171 313.819,367.891 313.529 C 367.611 313.238,366.756 311.770,365.992 310.267 C 365.228 308.764,364.377 307.347,364.101 307.118 C 363.826 306.889,363.600 306.447,363.600 306.135 C 363.600 305.823,363.267 305.080,362.859 304.484 C 362.452 303.888,361.103 301.866,359.861 299.991 C 355.795 293.853,350.121 287.399,338.974 276.234 C 333.334 270.586,332.438 269.296,333.039 267.699 C 333.433 266.652,333.394 266.598,332.226 266.567 C 331.427 266.546,329.916 265.780,327.890 264.367 C 324.191 261.790,323.663 261.453,320.251 259.488 C 317.717 258.028,312.655 254.785,311.769 254.054 C 311.532 253.858,310.902 253.565,310.369 253.402 C 309.836 253.239,309.130 252.888,308.800 252.622 C 308.470 252.357,307.120 251.642,305.800 251.034 C 304.480 250.427,302.890 249.675,302.266 249.364 C 300.846 248.656,296.683 247.029,294.706 246.410 C 293.884 246.152,293.108 245.775,292.982 245.571 C 292.856 245.367,292.268 245.199,291.676 245.198 C 291.084 245.196,290.113 244.941,289.518 244.631 C 288.347 244.020,283.370 242.642,279.200 241.775 C 277.770 241.478,275.520 240.971,274.200 240.649 C 270.116 239.653,263.260 238.828,257.200 238.604 C 250.646 238.362,129.256 238.017,127.400 238.235 " stroke="none" fill="#c4ebf3" fill-rule="evenodd"></path><path id="path1" d="M146.198 8.003 C 146.063 8.221,146.064 8.580,146.200 8.800 C 146.361 9.060,144.346 9.200,140.451 9.200 C 134.805 9.200,134.439 9.247,134.200 10.000 C 133.981 10.691,133.595 10.800,131.373 10.800 C 129.449 10.800,128.800 10.940,128.800 11.353 C 128.800 11.984,127.600 12.387,125.700 12.395 C 124.668 12.399,124.400 12.565,124.400 13.200 C 124.400 13.932,124.133 14.000,121.243 14.000 C 118.707 14.000,118.037 14.127,117.838 14.645 C 117.633 15.179,117.484 15.201,116.973 14.777 C 116.464 14.355,116.376 14.365,116.477 14.832 C 116.567 15.248,116.090 15.433,114.700 15.522 C 113.126 15.623,112.800 15.777,112.800 16.422 C 112.800 17.132,110.571 17.571,108.666 17.236 C 108.482 17.204,108.246 17.504,108.141 17.904 C 108.036 18.304,107.557 18.811,107.075 19.030 C 106.594 19.250,106.245 19.648,106.300 19.915 C 106.386 20.332,105.649 20.586,104.727 20.456 C 104.141 20.374,101.600 21.633,101.600 22.005 C 101.600 22.222,100.689 22.400,99.576 22.400 C 98.463 22.400,97.651 22.560,97.772 22.755 C 97.976 23.085,96.844 24.320,96.539 24.100 C 95.942 23.669,94.800 24.114,94.800 24.777 C 94.800 25.405,94.474 25.578,93.100 25.677 C 91.910 25.763,91.400 25.980,91.400 26.400 C 91.400 26.785,90.933 27.045,90.100 27.125 C 89.385 27.194,88.800 27.430,88.800 27.649 C 88.800 27.868,88.616 27.933,88.390 27.794 C 88.165 27.655,88.030 27.768,88.090 28.047 C 88.151 28.325,87.842 28.630,87.404 28.724 C 86.967 28.818,86.371 29.234,86.082 29.648 C 85.765 30.100,85.076 30.400,84.354 30.400 C 83.693 30.400,83.242 30.544,83.350 30.719 C 83.740 31.350,82.943 31.976,81.623 32.077 C 80.728 32.145,80.216 32.417,80.092 32.890 C 79.923 33.539,79.493 33.773,78.700 33.647 C 78.535 33.621,78.400 33.939,78.400 34.353 C 78.400 34.779,78.039 35.201,77.570 35.324 C 77.114 35.443,76.643 35.914,76.524 36.370 C 76.359 36.999,75.986 37.200,74.980 37.200 C 74.005 37.200,73.587 37.412,73.400 38.000 C 73.260 38.440,72.798 38.800,72.373 38.800 C 71.867 38.800,71.600 39.076,71.600 39.600 C 71.600 40.245,71.333 40.400,70.227 40.400 C 69.205 40.400,68.789 40.605,68.600 41.200 C 68.460 41.640,68.071 42.000,67.736 42.000 C 67.400 42.000,67.031 42.360,66.916 42.800 C 66.801 43.240,66.441 43.600,66.116 43.600 C 65.791 43.600,65.431 43.960,65.316 44.400 C 65.201 44.840,64.852 45.200,64.541 45.200 C 64.230 45.200,63.866 45.484,63.733 45.831 C 63.600 46.177,63.064 46.624,62.543 46.822 C 62.021 47.020,61.617 47.321,61.644 47.491 C 61.755 48.170,61.584 48.797,61.300 48.753 C 60.416 48.613,60.000 48.884,60.000 49.600 C 60.000 50.065,59.733 50.400,59.363 50.400 C 59.012 50.400,58.631 50.760,58.516 51.200 C 58.401 51.640,58.041 52.000,57.716 52.000 C 57.391 52.000,57.031 52.360,56.916 52.800 C 56.801 53.240,56.470 53.600,56.180 53.600 C 55.891 53.600,55.540 53.960,55.400 54.400 C 55.260 54.840,54.798 55.200,54.373 55.200 C 53.867 55.200,53.600 55.476,53.600 56.000 C 53.600 56.524,53.333 56.800,52.828 56.800 C 52.334 56.800,52.006 57.125,51.918 57.700 C 51.843 58.195,51.545 58.550,51.256 58.489 C 50.967 58.427,50.636 58.742,50.519 59.189 C 50.326 59.928,49.915 60.176,49.100 60.047 C 48.935 60.021,48.800 60.260,48.800 60.577 C 48.800 60.895,48.427 61.416,47.971 61.735 C 47.515 62.055,47.089 62.650,47.025 63.058 C 46.957 63.494,46.640 63.752,46.255 63.682 C 45.476 63.543,45.404 64.041,46.100 64.749 C 46.501 65.156,46.483 65.232,46.009 65.129 C 45.652 65.051,45.365 65.355,45.282 65.900 C 45.194 66.475,44.866 66.800,44.372 66.800 C 43.867 66.800,43.600 67.076,43.600 67.600 C 43.600 68.133,43.333 68.400,42.800 68.400 C 42.267 68.400,42.000 68.667,42.000 69.200 C 42.000 69.733,41.733 70.000,41.200 70.000 C 40.574 70.000,40.400 70.267,40.400 71.224 C 40.400 72.096,40.256 72.361,39.900 72.147 C 39.581 71.955,39.605 72.099,39.968 72.546 C 40.280 72.930,40.370 73.214,40.168 73.175 C 39.252 73.001,38.800 73.258,38.800 73.953 C 38.800 74.370,38.443 74.800,38.000 74.916 C 37.560 75.031,37.200 75.412,37.200 75.763 C 37.200 76.336,36.738 76.580,35.900 76.447 C 35.735 76.421,35.578 76.850,35.550 77.400 C 35.523 77.950,35.477 78.565,35.450 78.767 C 35.378 79.297,34.807 79.799,34.267 79.807 C 34.010 79.811,33.813 80.204,33.829 80.681 C 33.849 81.272,33.557 81.624,32.914 81.786 C 32.395 81.916,31.998 82.243,32.032 82.511 C 32.229 84.049,31.956 84.800,31.200 84.800 C 30.533 84.800,30.400 85.067,30.400 86.400 C 30.400 87.733,30.267 88.000,29.600 88.000 C 28.933 88.000,28.800 88.267,28.800 89.600 C 28.800 91.073,28.533 91.411,27.500 91.247 C 27.335 91.221,27.200 91.622,27.200 92.139 C 27.200 92.706,26.843 93.265,26.300 93.551 C 25.563 93.939,25.545 93.986,26.200 93.811 C 26.945 93.613,26.952 93.635,26.300 94.143 C 25.834 94.506,25.600 95.241,25.600 96.344 C 25.600 97.733,25.471 98.000,24.800 98.000 C 24.267 98.000,24.000 98.267,24.000 98.800 C 24.000 99.240,23.820 99.600,23.600 99.600 C 23.380 99.600,23.065 99.597,22.900 99.593 C 22.735 99.589,22.510 100.714,22.400 102.093 C 22.261 103.830,22.044 104.568,21.691 104.497 C 20.990 104.355,20.464 105.919,20.538 107.925 C 20.592 109.383,20.490 109.600,19.755 109.600 C 19.124 109.600,18.926 109.829,18.977 110.500 C 19.063 111.644,18.603 113.041,18.199 112.866 C 17.574 112.595,17.212 113.862,17.206 116.337 C 17.201 118.517,17.090 118.904,16.417 119.080 C 15.756 119.253,15.616 119.695,15.517 121.942 C 15.443 123.633,15.230 124.600,14.933 124.600 C 14.122 124.600,13.799 125.228,14.412 125.616 C 14.810 125.868,14.839 125.990,14.500 125.994 C 14.147 125.998,14.000 126.838,14.000 128.843 C 14.000 131.248,13.904 131.649,13.379 131.447 C 13.023 131.311,12.863 131.378,13.003 131.605 C 13.137 131.822,13.078 132.000,12.871 132.000 C 12.665 132.000,12.465 133.929,12.427 136.289 C 12.363 140.327,12.033 141.515,11.131 140.957 C 10.304 140.446,10.757 190.725,11.585 191.304 C 12.185 191.725,12.399 192.373,12.454 193.947 C 12.495 195.094,12.707 196.143,12.926 196.278 C 13.167 196.427,13.199 196.303,13.005 195.962 C 12.763 195.534,12.838 195.543,13.320 196.000 C 13.817 196.471,13.973 197.623,14.044 201.355 C 14.124 205.540,14.220 206.132,14.849 206.297 C 15.420 206.446,15.588 206.978,15.682 208.942 C 15.782 211.026,15.907 211.382,16.500 211.282 C 17.088 211.184,17.200 211.481,17.200 213.150 C 17.200 215.389,17.511 216.502,18.045 216.172 C 18.533 215.871,18.771 216.620,18.945 219.000 C 19.051 220.456,19.269 221.035,19.745 221.129 C 20.332 221.245,20.600 222.151,20.437 223.470 C 20.376 223.965,21.125 224.584,21.800 224.594 C 22.020 224.597,22.248 225.320,22.307 226.200 C 22.467 228.608,22.763 229.606,23.283 229.498 C 23.541 229.444,23.815 229.760,23.892 230.200 C 24.266 232.346,24.460 232.800,25.008 232.800 C 25.432 232.800,25.600 233.254,25.600 234.400 C 25.600 235.733,25.733 236.000,26.400 236.000 C 27.042 236.000,27.200 236.267,27.200 237.351 C 27.200 238.665,28.007 239.860,28.537 239.330 C 28.682 239.185,28.823 239.637,28.850 240.333 C 28.919 242.091,28.959 242.292,29.300 242.633 C 29.465 242.798,29.600 242.713,29.600 242.443 C 29.600 242.173,29.780 242.064,30.000 242.200 C 30.220 242.336,30.400 242.843,30.400 243.327 C 30.400 243.811,30.760 244.432,31.200 244.707 C 31.710 245.026,32.000 245.640,32.000 246.403 C 32.000 247.333,32.178 247.600,32.800 247.600 C 33.345 247.600,33.619 247.887,33.661 248.500 C 33.694 248.995,33.740 249.650,33.763 249.955 C 33.786 250.260,34.208 250.659,34.702 250.842 C 35.197 251.025,35.622 251.539,35.650 251.987 C 35.752 253.638,35.832 253.798,36.509 253.682 C 37.038 253.592,37.200 253.850,37.200 254.782 C 37.200 255.733,37.375 256.000,38.000 256.000 C 38.533 256.000,38.800 256.267,38.800 256.800 C 38.800 257.333,39.067 257.600,39.600 257.600 C 40.173 257.600,40.414 257.883,40.450 258.600 C 40.543 260.452,40.598 260.600,41.200 260.600 C 41.530 260.600,41.858 261.005,41.928 261.500 C 42.010 262.078,42.332 262.400,42.828 262.400 C 43.333 262.400,43.600 262.676,43.600 263.200 C 43.600 263.733,43.867 264.000,44.400 264.000 C 44.933 264.000,45.200 264.267,45.200 264.800 C 45.200 265.324,45.467 265.600,45.973 265.600 C 46.520 265.600,46.784 265.923,46.873 266.700 C 46.948 267.344,47.249 267.808,47.600 267.818 C 47.930 267.828,48.155 268.053,48.100 268.318 C 48.045 268.583,48.180 268.800,48.400 268.800 C 48.620 268.800,48.800 269.230,48.800 269.756 C 48.800 270.420,49.013 270.694,49.500 270.656 C 49.943 270.620,50.247 270.930,50.328 271.500 C 50.407 272.055,50.733 272.400,51.181 272.400 C 51.580 272.400,52.001 272.760,52.116 273.200 C 52.231 273.640,52.591 274.000,52.916 274.000 C 53.241 274.000,53.601 274.360,53.716 274.800 C 53.831 275.240,54.191 275.600,54.516 275.600 C 54.841 275.600,55.201 275.960,55.316 276.400 C 55.431 276.840,55.791 277.200,56.116 277.200 C 56.441 277.200,56.801 277.560,56.916 278.000 C 57.031 278.440,57.391 278.800,57.716 278.800 C 58.041 278.800,58.401 279.160,58.516 279.600 C 58.631 280.040,58.992 280.400,59.319 280.400 C 59.646 280.400,60.026 280.849,60.164 281.398 C 60.301 281.946,60.546 282.375,60.707 282.350 C 61.380 282.247,61.997 282.420,61.953 282.700 C 61.846 283.375,62.018 283.997,62.300 283.953 C 63.195 283.811,63.600 284.089,63.600 284.843 C 63.600 285.408,63.788 285.614,64.171 285.467 C 64.485 285.346,64.957 285.507,65.220 285.824 C 65.483 286.141,65.550 286.400,65.369 286.400 C 65.188 286.400,65.263 286.623,65.537 286.897 C 65.932 287.292,66.110 287.272,66.411 286.797 C 66.662 286.398,66.790 286.366,66.794 286.700 C 66.797 286.975,67.160 287.200,67.600 287.200 C 68.133 287.200,68.400 287.467,68.400 288.000 C 68.400 288.524,68.667 288.800,69.173 288.800 C 69.598 288.800,70.060 289.160,70.200 289.600 C 70.340 290.040,70.668 290.400,70.931 290.400 C 71.193 290.400,71.637 290.767,71.917 291.216 C 72.197 291.664,72.588 291.931,72.785 291.809 C 72.983 291.687,73.260 291.773,73.400 292.000 C 73.540 292.227,73.810 292.317,74.000 292.200 C 74.190 292.083,74.475 292.198,74.634 292.455 C 74.815 292.748,74.750 292.816,74.462 292.638 C 74.208 292.481,74.000 292.548,74.000 292.786 C 74.000 293.025,74.540 293.328,75.200 293.460 C 76.286 293.677,76.586 294.023,76.447 294.900 C 76.402 295.190,76.634 295.275,77.700 295.360 C 77.975 295.382,78.299 295.760,78.419 296.200 C 78.649 297.040,78.777 297.080,81.500 297.154 C 82.882 297.191,83.200 297.341,83.200 297.953 C 83.200 298.370,83.557 298.800,84.000 298.916 C 84.440 299.031,84.786 299.367,84.768 299.663 C 84.745 300.067,84.687 300.076,84.535 299.700 C 84.280 299.068,83.200 299.042,83.200 299.667 C 83.200 299.923,83.311 300.022,83.448 299.886 C 84.793 298.540,84.790 298.304,84.805 404.977 C 84.820 508.237,84.827 509.227,85.610 510.010 C 86.306 510.706,86.400 511.353,86.400 515.443 C 86.400 519.583,86.471 520.058,87.057 519.834 C 87.620 519.617,87.637 519.673,87.178 520.226 C 86.727 520.769,86.734 520.858,87.222 520.788 C 88.381 520.622,88.846 520.802,88.547 521.300 C 88.333 521.655,88.438 521.645,88.907 521.264 C 89.483 520.797,89.548 520.831,89.415 521.522 C 89.270 522.277,89.508 522.318,94.319 522.377 C 99.131 522.435,100.340 522.726,99.750 523.681 C 99.642 523.856,136.892 524.000,182.530 524.000 C 265.170 524.000,265.508 523.997,265.716 523.200 C 265.911 522.456,266.262 522.400,270.763 522.400 C 275.333 522.400,275.600 522.356,275.600 521.600 C 275.600 520.877,275.867 520.800,278.367 520.800 C 281.563 520.800,282.436 520.560,282.132 519.767 C 281.942 519.272,286.275 518.837,288.134 519.164 C 288.318 519.196,288.564 518.858,288.681 518.411 C 288.872 517.681,291.278 517.233,293.300 517.553 C 293.465 517.579,293.600 517.240,293.600 516.800 C 293.600 516.126,293.883 515.992,295.400 515.950 C 298.004 515.878,299.031 515.498,298.583 514.772 C 298.394 514.467,300.569 514.174,301.700 514.353 C 301.865 514.379,302.000 514.040,302.000 513.600 C 302.000 512.933,302.267 512.800,303.600 512.800 C 304.993 512.800,305.200 512.683,305.200 511.900 C 305.200 511.104,305.421 510.991,307.100 510.919 C 309.452 510.818,309.962 510.730,309.930 510.433 C 309.831 509.508,310.205 509.231,311.700 509.123 C 313.032 509.027,313.388 508.848,313.344 508.300 C 313.303 507.774,313.593 507.600,314.511 507.600 C 315.183 507.600,315.615 507.482,315.470 507.337 C 314.976 506.842,316.096 506.000,317.249 506.000 C 318.133 506.000,318.400 505.815,318.400 505.200 C 318.400 504.548,318.667 504.400,319.837 504.400 C 320.938 504.400,321.324 504.213,321.484 503.600 C 321.616 503.097,322.030 502.800,322.600 502.800 C 323.170 502.800,323.584 502.503,323.716 502.000 C 323.857 501.460,324.262 501.200,324.959 501.200 C 325.560 501.200,326.203 500.865,326.493 500.400 C 326.768 499.960,327.225 499.600,327.509 499.600 C 327.793 499.600,328.126 499.337,328.250 499.015 C 328.494 498.379,329.882 497.781,330.731 497.946 C 331.023 498.003,331.357 497.684,331.474 497.238 C 331.591 496.792,332.027 496.318,332.443 496.186 C 332.859 496.054,333.200 495.598,333.200 495.173 C 333.200 494.472,334.509 494.101,336.100 494.353 C 336.265 494.379,336.379 494.265,336.353 494.100 C 336.216 493.237,336.488 492.843,337.300 492.728 C 337.795 492.658,338.200 492.330,338.200 492.000 C 338.200 491.670,338.605 491.342,339.100 491.272 C 339.678 491.190,340.000 490.868,340.000 490.372 C 340.000 489.867,340.276 489.600,340.800 489.600 C 341.333 489.600,341.600 489.333,341.600 488.800 C 341.600 488.267,341.867 488.000,342.400 488.000 C 342.933 488.000,343.200 487.733,343.200 487.200 C 343.200 486.679,343.467 486.400,343.964 486.400 C 344.385 486.400,345.193 485.848,345.761 485.174 C 346.328 484.500,346.986 484.068,347.223 484.214 C 347.463 484.362,347.751 484.108,347.874 483.640 C 348.075 482.869,348.486 482.619,349.319 482.759 C 349.494 482.788,349.608 482.585,349.572 482.306 C 349.424 481.182,349.634 480.771,350.300 480.882 C 350.699 480.949,350.955 480.780,350.896 480.489 C 350.839 480.208,351.063 479.874,351.394 479.747 C 351.725 479.620,351.897 479.357,351.777 479.163 C 351.657 478.968,351.869 478.928,352.249 479.074 C 352.756 479.269,352.877 479.179,352.707 478.736 C 352.557 478.344,353.163 477.527,354.438 476.406 C 355.517 475.457,356.400 474.347,356.400 473.940 C 356.400 473.467,356.688 473.200,357.200 473.200 C 357.733 473.200,358.000 472.933,358.000 472.400 C 358.000 471.935,358.267 471.600,358.637 471.600 C 358.988 471.600,359.369 471.240,359.484 470.800 C 359.675 470.071,360.087 469.824,360.900 469.953 C 361.065 469.979,361.179 469.865,361.153 469.700 C 361.022 468.875,361.273 468.431,362.000 468.200 C 362.440 468.060,362.800 467.598,362.800 467.173 C 362.800 466.675,363.076 466.400,363.576 466.400 C 364.182 466.400,364.379 466.075,364.476 464.916 C 364.574 463.746,364.796 463.386,365.524 463.216 C 366.032 463.097,366.437 462.865,366.424 462.700 C 366.354 461.821,366.469 461.632,367.211 461.397 C 367.656 461.255,367.995 460.928,367.963 460.670 C 367.775 459.141,368.048 458.400,368.800 458.400 C 369.273 458.400,369.600 458.133,369.600 457.747 C 369.600 457.388,369.915 456.803,370.300 456.447 C 370.685 456.091,371.057 455.350,371.126 454.800 C 371.195 454.250,371.600 453.553,372.026 453.251 C 372.530 452.894,372.800 452.232,372.800 451.351 C 372.800 450.267,372.958 450.000,373.600 450.000 C 374.133 450.000,374.400 449.733,374.400 449.200 C 374.400 448.760,374.580 448.400,374.800 448.400 C 375.020 448.400,375.155 448.175,375.100 447.900 C 375.045 447.625,375.225 447.445,375.500 447.500 C 375.775 447.555,375.979 447.465,375.953 447.300 C 375.727 445.873,376.067 444.776,376.700 444.882 C 377.262 444.977,377.425 444.659,377.525 443.267 C 377.621 441.932,377.785 441.585,378.240 441.760 C 378.863 441.999,379.065 441.669,379.356 439.932 C 379.455 439.345,379.910 438.490,380.368 438.032 C 380.825 437.575,381.200 436.769,381.200 436.243 C 381.200 435.716,381.467 435.183,381.793 435.058 C 382.120 434.933,382.287 434.572,382.166 434.256 C 382.045 433.940,382.138 433.562,382.373 433.417 C 382.608 433.272,382.800 432.533,382.800 431.776 C 382.800 430.820,382.983 430.400,383.400 430.400 C 383.730 430.400,384.023 430.220,384.050 430.000 C 384.078 429.780,384.145 429.420,384.200 429.200 C 384.255 428.980,384.322 428.063,384.350 427.163 C 384.387 425.937,384.585 425.477,385.133 425.333 C 385.718 425.180,385.884 424.691,385.956 422.897 C 386.023 421.252,386.254 420.473,386.824 419.980 C 387.445 419.441,387.600 418.782,387.600 416.680 C 387.600 414.405,387.707 414.020,388.400 413.800 C 389.116 413.573,389.200 413.195,389.200 410.217 C 389.200 407.293,389.285 406.896,389.900 406.944 C 390.696 407.008,390.692 407.032,390.754 402.276 C 390.786 399.803,390.933 398.835,391.245 399.028 C 391.489 399.179,391.843 399.055,392.030 398.751 C 392.517 397.963,392.492 360.748,392.004 360.000 C 391.671 359.490,391.611 359.487,391.606 359.980 C 391.602 360.347,391.460 360.420,391.220 360.180 C 391.010 359.970,390.811 357.596,390.776 354.903 C 390.741 352.210,390.589 350.083,390.437 350.177 C 389.623 350.680,389.262 349.465,389.137 345.799 C 389.026 342.572,388.884 341.800,388.400 341.800 C 387.944 341.800,387.772 341.205,387.681 339.321 C 387.584 337.273,387.427 336.799,386.781 336.594 C 386.194 336.408,385.988 335.956,385.950 334.773 C 385.876 332.445,385.857 332.377,385.129 331.845 C 384.629 331.479,384.425 330.595,384.329 328.377 C 384.245 326.449,384.036 325.400,383.733 325.400 C 383.009 325.400,382.751 324.981,382.649 323.639 C 382.597 322.958,382.246 322.176,381.869 321.900 C 381.492 321.624,381.142 320.812,381.092 320.095 C 381.033 319.261,380.748 318.712,380.300 318.569 C 379.915 318.446,379.579 318.043,379.554 317.673 C 379.528 317.303,379.466 316.820,379.415 316.600 C 379.364 316.380,379.294 315.975,379.261 315.700 C 379.227 315.425,378.840 315.200,378.400 315.200 C 377.748 315.200,377.600 314.933,377.600 313.763 C 377.600 312.662,377.413 312.276,376.800 312.116 C 376.173 311.952,376.000 311.570,376.000 310.353 C 376.000 309.067,375.863 308.800,375.200 308.800 C 374.536 308.800,374.400 308.533,374.400 307.227 C 374.400 306.005,374.221 305.597,373.600 305.400 C 373.044 305.224,372.800 304.795,372.800 303.996 C 372.800 303.323,372.488 302.627,372.048 302.318 C 371.634 302.029,371.227 301.433,371.142 300.996 C 371.058 300.558,370.782 300.200,370.528 300.200 C 370.274 300.200,369.917 300.036,369.733 299.836 C 369.540 299.624,369.610 299.592,369.900 299.759 C 370.175 299.918,370.400 299.876,370.400 299.666 C 370.400 299.457,370.144 299.187,369.831 299.067 C 369.483 298.934,369.346 298.529,369.478 298.024 C 369.645 297.384,369.505 297.200,368.847 297.200 C 368.267 297.200,368.000 296.948,368.000 296.400 C 368.000 295.960,367.809 295.600,367.576 295.600 C 367.343 295.600,367.288 295.375,367.453 295.100 C 367.667 294.745,367.562 294.755,367.093 295.136 C 366.514 295.605,366.452 295.567,366.593 294.836 C 366.682 294.376,366.590 294.000,366.390 294.000 C 366.189 294.000,366.118 293.759,366.231 293.464 C 366.482 292.810,365.397 291.831,364.818 292.189 C 364.577 292.338,364.400 292.082,364.400 291.586 C 364.400 291.062,364.087 290.643,363.600 290.516 C 363.157 290.400,362.800 289.970,362.800 289.553 C 362.800 289.067,362.517 288.800,362.000 288.800 C 361.281 288.800,361.112 288.409,361.216 286.984 C 361.224 286.865,360.539 286.100,359.693 285.284 C 358.848 284.468,358.036 283.485,357.890 283.100 C 357.744 282.715,357.370 282.400,357.059 282.400 C 356.748 282.400,356.399 282.040,356.284 281.600 C 356.169 281.160,355.788 280.800,355.437 280.800 C 355.067 280.800,354.800 280.465,354.800 280.000 C 354.800 279.560,354.620 279.178,354.400 279.150 C 354.180 279.123,353.775 279.078,353.500 279.050 C 353.225 279.022,353.000 278.760,353.000 278.468 C 353.000 278.175,352.640 277.672,352.200 277.351 C 351.760 277.029,351.400 276.548,351.400 276.283 C 351.400 276.017,350.995 275.742,350.500 275.672 C 349.922 275.590,349.600 275.268,349.600 274.772 C 349.600 274.267,349.324 274.000,348.800 274.000 C 348.267 274.000,348.000 273.733,348.000 273.200 C 348.000 272.667,347.733 272.400,347.200 272.400 C 346.667 272.400,346.400 272.133,346.400 271.600 C 346.400 271.067,346.133 270.800,345.600 270.800 C 345.067 270.800,344.800 270.533,344.800 270.000 C 344.800 269.467,344.533 269.200,344.000 269.200 C 343.467 269.200,343.200 268.933,343.200 268.400 C 343.200 267.867,342.933 267.600,342.400 267.600 C 341.602 267.600,341.600 267.333,341.600 139.200 C 341.600 49.096,341.474 10.800,341.176 10.800 C 340.943 10.800,340.888 10.575,341.053 10.300 C 341.267 9.945,341.162 9.955,340.693 10.336 C 340.114 10.805,340.052 10.767,340.193 10.036 C 340.299 9.488,340.147 9.200,339.753 9.200 C 339.379 9.200,339.266 9.011,339.453 8.700 C 339.667 8.345,339.562 8.355,339.093 8.736 C 338.514 9.205,338.452 9.167,338.593 8.434 L 338.755 7.597 242.599 7.602 C 179.454 7.605,146.359 7.743,146.198 8.003 M333.236 13.203 C 335.999 13.971,335.788 7.378,335.920 97.000 C 335.999 150.766,335.872 187.863,335.543 206.800 C 335.269 222.530,334.987 243.121,334.914 252.558 L 334.783 269.716 337.298 272.158 C 338.682 273.501,341.071 275.770,342.608 277.200 C 346.761 281.065,352.527 287.544,358.908 295.516 C 359.737 296.552,361.249 298.660,362.267 300.200 C 363.285 301.740,364.466 303.507,364.891 304.128 C 365.317 304.748,367.099 308.168,368.852 311.728 C 370.605 315.287,372.212 318.470,372.422 318.800 C 372.633 319.130,373.002 319.850,373.242 320.400 C 373.481 320.950,373.920 321.940,374.215 322.600 C 374.511 323.260,375.225 325.060,375.801 326.600 C 376.377 328.140,377.197 330.255,377.624 331.300 C 378.051 332.345,378.748 334.055,379.173 335.100 C 379.599 336.145,380.050 337.487,380.177 338.082 C 380.303 338.678,380.617 339.668,380.875 340.282 C 381.132 340.897,381.565 342.480,381.836 343.800 C 382.108 345.120,382.514 346.920,382.739 347.800 C 383.709 351.591,384.546 356.480,384.862 360.200 C 385.049 362.400,385.477 367.350,385.812 371.200 C 386.566 379.871,386.564 384.923,385.804 390.600 C 385.481 393.020,385.212 395.859,385.208 396.908 C 385.204 397.958,384.853 400.118,384.428 401.708 C 384.004 403.299,383.199 406.490,382.639 408.800 C 382.079 411.110,381.244 414.260,380.783 415.800 C 380.322 417.340,379.602 419.796,379.183 421.257 C 377.764 426.206,372.758 437.420,368.406 445.400 C 367.086 447.820,365.782 450.250,365.508 450.800 C 364.105 453.613,356.843 463.907,354.826 465.940 C 354.466 466.303,353.158 467.860,351.920 469.400 C 349.056 472.963,340.559 481.386,337.186 484.004 C 329.202 490.203,321.981 495.483,319.668 496.815 C 319.081 497.153,317.794 497.947,316.809 498.578 C 314.026 500.360,303.575 505.377,299.276 506.994 C 297.144 507.795,294.590 508.775,293.600 509.171 C 291.076 510.181,289.288 510.807,287.200 511.411 C 286.210 511.698,284.590 512.203,283.600 512.534 C 280.168 513.681,276.188 514.756,273.800 515.181 C 272.480 515.416,270.500 515.892,269.400 516.238 C 267.288 516.903,262.557 517.190,239.800 518.030 C 224.451 518.597,121.196 518.239,112.000 517.587 C 96.477 516.486,93.757 516.102,92.677 514.859 C 91.930 514.000,91.623 488.004,91.527 417.800 C 91.489 389.640,91.332 350.589,91.177 331.021 L 90.897 295.442 89.748 294.523 C 89.117 294.018,88.402 293.603,88.160 293.602 C 84.232 293.584,67.371 279.851,55.008 266.600 C 53.385 264.861,45.773 255.459,44.800 253.993 C 44.470 253.496,43.840 252.619,43.400 252.044 C 41.761 249.904,40.905 248.559,40.629 247.692 C 40.474 247.202,40.200 246.800,40.022 246.800 C 39.843 246.800,39.460 246.215,39.171 245.500 C 38.882 244.785,38.525 244.110,38.379 244.000 C 38.232 243.890,37.772 243.190,37.356 242.444 C 33.938 236.312,33.164 234.875,32.807 234.000 C 32.584 233.450,32.219 232.730,31.997 232.400 C 31.566 231.758,31.228 231.055,29.690 227.600 C 29.152 226.390,28.465 224.860,28.165 224.200 C 26.313 220.134,24.447 215.147,24.198 213.600 C 24.040 212.610,23.726 211.572,23.501 211.294 C 23.276 211.016,22.854 209.846,22.562 208.694 C 22.270 207.542,21.656 205.160,21.197 203.400 C 20.737 201.640,20.106 198.940,19.793 197.400 C 19.480 195.860,18.946 193.700,18.607 192.600 C 18.268 191.500,17.707 187.000,17.361 182.600 C 17.015 178.200,16.597 173.250,16.434 171.600 C 16.057 167.816,16.257 158.221,16.784 154.800 C 17.004 153.370,17.377 149.410,17.613 146.000 C 17.849 142.590,18.221 139.080,18.439 138.200 C 18.658 137.320,19.097 135.430,19.415 134.000 C 19.733 132.570,20.161 130.950,20.365 130.400 C 20.570 129.850,20.853 128.412,20.995 127.205 C 21.137 125.997,21.498 124.467,21.797 123.805 C 22.096 123.142,22.454 122.033,22.593 121.339 C 22.733 120.646,23.196 119.392,23.623 118.554 C 24.050 117.716,24.400 116.740,24.400 116.385 C 24.400 115.704,26.065 110.635,26.958 108.600 C 28.636 104.773,32.795 95.859,33.210 95.200 C 33.418 94.870,33.868 93.976,34.210 93.214 C 34.551 92.452,34.959 91.730,35.116 91.611 C 35.272 91.491,35.913 90.405,36.541 89.197 C 39.215 84.049,47.029 73.053,53.308 65.600 C 55.313 63.221,63.662 54.823,66.381 52.451 C 67.800 51.213,69.278 49.892,69.666 49.515 C 70.385 48.815,76.843 43.720,80.205 41.200 C 83.220 38.940,85.776 37.213,86.117 37.206 C 86.291 37.203,86.651 37.017,86.917 36.794 C 87.706 36.131,90.484 34.354,91.374 33.942 C 91.828 33.731,92.920 33.125,93.800 32.595 C 96.519 30.958,109.842 24.400,110.449 24.400 C 110.764 24.400,111.379 24.150,111.814 23.845 C 112.250 23.540,113.415 23.055,114.403 22.768 C 115.392 22.480,116.560 22.028,117.000 21.762 C 117.440 21.496,118.397 21.154,119.127 21.002 C 119.857 20.849,120.937 20.473,121.527 20.165 C 122.117 19.857,122.824 19.604,123.098 19.602 C 123.373 19.601,124.633 19.242,125.898 18.805 C 128.419 17.935,130.176 17.519,136.200 16.369 C 145.289 14.634,151.279 13.995,160.200 13.811 C 169.348 13.623,180.550 13.156,180.767 12.955 C 181.169 12.581,331.880 12.827,333.236 13.203 " stroke="none" fill="#758686" fill-rule="evenodd"></path><path id="path2" d="M168.950 15.616 C 168.482 15.793,165.476 15.936,162.269 15.933 C 159.062 15.931,156.270 16.033,156.065 16.160 C 155.859 16.287,153.331 16.422,150.446 16.460 C 147.561 16.498,145.200 16.680,145.200 16.865 C 145.200 17.049,145.065 17.167,144.900 17.127 C 144.735 17.087,143.880 17.266,143.000 17.525 C 142.120 17.784,140.680 17.996,139.800 17.997 C 138.920 17.997,136.850 18.377,135.200 18.842 C 127.707 20.950,126.361 21.342,122.600 22.512 C 120.400 23.196,118.150 23.989,117.600 24.275 C 117.050 24.561,116.455 24.796,116.278 24.798 C 115.836 24.801,112.521 26.237,110.721 27.205 C 109.907 27.642,109.068 28.000,108.855 28.000 C 108.643 28.000,106.565 28.900,104.239 30.000 C 101.913 31.100,99.827 32.000,99.605 32.000 C 99.382 32.000,99.200 32.153,99.200 32.339 C 99.200 32.526,98.525 32.967,97.700 33.320 C 96.157 33.980,91.321 36.545,90.588 37.092 C 90.361 37.262,89.315 37.850,88.262 38.400 C 87.209 38.950,86.007 39.715,85.590 40.100 C 85.174 40.485,84.717 40.800,84.574 40.800 C 84.432 40.800,83.750 41.258,83.058 41.817 C 82.366 42.376,81.390 43.141,80.890 43.517 C 80.389 43.893,79.712 44.441,79.384 44.735 C 79.055 45.029,77.845 45.966,76.694 46.816 C 69.927 51.813,57.480 64.222,50.629 72.800 C 48.960 74.890,47.440 76.791,47.251 77.025 C 46.803 77.580,43.597 82.173,42.705 83.537 C 42.322 84.122,41.697 85.230,41.316 86.000 C 40.934 86.770,40.144 88.121,39.559 89.002 C 36.666 93.363,32.496 101.833,28.829 110.800 C 28.334 112.010,27.610 113.630,27.220 114.400 C 26.169 116.477,23.477 126.112,22.973 129.600 C 22.830 130.590,22.486 131.670,22.208 132.000 C 21.930 132.330,21.581 134.006,21.433 135.723 C 21.284 137.441,20.999 139.276,20.800 139.800 C 20.601 140.324,20.321 142.159,20.179 143.877 C 20.037 145.594,19.671 147.990,19.366 149.200 C 18.932 150.919,18.837 154.458,18.932 165.400 C 19.053 179.244,19.206 181.277,20.799 190.200 C 21.035 191.520,21.285 193.601,21.355 194.824 C 21.425 196.048,21.765 197.488,22.110 198.024 C 22.455 198.561,22.856 199.900,23.001 201.000 C 23.247 202.872,24.024 205.769,25.416 210.000 C 25.741 210.990,26.084 212.160,26.178 212.600 C 26.342 213.374,27.546 216.540,28.611 219.000 C 28.897 219.660,29.621 221.550,30.219 223.200 C 31.234 225.996,34.388 232.384,36.343 235.600 C 36.811 236.370,37.410 237.450,37.674 238.000 C 39.949 242.739,45.134 250.660,49.311 255.779 C 50.020 256.647,51.186 258.087,51.903 258.979 C 56.540 264.749,60.231 268.971,62.356 270.936 C 63.584 272.071,65.401 273.781,66.394 274.736 C 68.861 277.108,71.155 279.052,75.400 282.365 C 77.380 283.910,79.191 285.336,79.425 285.533 C 79.659 285.730,80.289 286.118,80.825 286.395 C 81.361 286.671,82.250 287.296,82.800 287.782 C 85.519 290.188,88.430 290.847,88.774 289.135 C 88.833 288.841,88.950 278.194,89.032 265.476 C 89.157 246.306,89.282 242.168,89.760 241.276 C 90.078 240.684,90.436 239.885,90.556 239.500 C 90.676 239.115,91.096 238.799,91.487 238.798 C 91.879 238.796,92.672 238.549,93.250 238.247 C 96.539 236.531,257.419 235.725,266.400 237.379 C 266.950 237.481,267.892 237.649,268.493 237.754 C 269.095 237.859,269.751 238.046,269.953 238.171 C 270.154 238.295,271.724 238.592,273.443 238.831 C 275.161 239.070,277.024 239.498,277.583 239.782 C 278.143 240.066,279.635 240.424,280.900 240.578 C 282.165 240.732,283.200 241.010,283.200 241.197 C 283.200 241.559,284.419 241.880,286.971 242.190 C 287.835 242.295,288.649 242.555,288.780 242.768 C 288.912 242.981,289.915 243.374,291.010 243.642 C 292.104 243.910,293.732 244.460,294.626 244.865 C 295.521 245.269,296.556 245.600,296.928 245.600 C 297.299 245.600,298.275 245.960,299.096 246.400 C 299.916 246.840,300.922 247.200,301.331 247.200 C 301.740 247.200,302.531 247.560,303.091 248.000 C 303.650 248.440,304.624 248.800,305.254 248.800 C 305.884 248.800,306.400 248.981,306.400 249.202 C 306.400 249.422,307.210 249.820,308.200 250.084 C 309.190 250.349,310.000 250.686,310.000 250.834 C 310.000 250.981,310.855 251.489,311.900 251.963 C 315.292 253.500,318.884 255.623,321.156 257.432 C 321.730 257.889,322.470 258.384,322.800 258.532 C 323.130 258.679,324.210 259.418,325.200 260.174 C 329.112 263.162,329.894 263.610,331.369 263.703 L 332.886 263.800 333.028 245.400 C 333.107 235.280,333.223 179.800,333.286 122.112 L 333.400 17.223 332.537 16.359 L 331.673 15.495 291.737 15.540 C 198.871 15.645,170.368 15.628,170.092 15.466 C 169.931 15.371,169.417 15.439,168.950 15.616 " stroke="none" fill="#fbfbfb" fill-rule="evenodd"></path><path id="path3" d="M177.400 13.176 C 175.420 13.299,209.690 13.411,253.556 13.425 L 333.312 13.449 334.211 14.495 C 335.052 15.473,335.130 16.051,335.407 23.449 C 335.691 31.030,335.378 199.599,335.035 224.000 C 334.884 234.717,334.906 235.249,335.274 229.800 C 335.529 226.028,335.702 185.262,335.740 120.000 C 335.806 5.466,336.004 13.972,333.254 13.208 C 331.718 12.782,184.217 12.751,177.400 13.176 M156.307 13.890 C 157.026 13.979,158.106 13.977,158.707 13.886 C 159.308 13.795,158.720 13.722,157.400 13.724 C 156.080 13.726,155.588 13.801,156.307 13.890 M165.315 13.896 C 166.588 13.976,168.568 13.975,169.715 13.894 C 170.862 13.814,169.820 13.749,167.400 13.750 C 164.980 13.751,164.042 13.816,165.315 13.896 M152.100 14.276 C 152.485 14.376,153.115 14.376,153.500 14.276 C 153.885 14.175,153.570 14.093,152.800 14.093 C 152.030 14.093,151.715 14.175,152.100 14.276 M145.800 14.821 C 145.043 15.027,145.634 15.065,147.400 14.925 C 148.940 14.802,150.275 14.634,150.367 14.551 C 150.673 14.274,147.016 14.490,145.800 14.821 M140.400 15.607 C 139.779 15.811,140.309 15.851,141.800 15.712 C 143.120 15.589,144.275 15.424,144.367 15.344 C 144.689 15.065,141.388 15.284,140.400 15.607 M134.600 16.603 C 128.857 17.858,126.797 18.373,126.121 18.722 C 125.724 18.927,124.454 19.316,123.299 19.587 C 122.143 19.859,121.079 20.273,120.933 20.508 C 120.758 20.791,120.928 20.831,121.434 20.625 C 121.855 20.453,122.830 20.141,123.600 19.930 C 124.370 19.720,125.720 19.302,126.600 19.002 C 128.010 18.521,131.894 17.621,137.600 16.454 C 138.960 16.176,139.106 16.085,138.200 16.082 C 137.540 16.080,135.920 16.314,134.600 16.603 M118.120 21.242 C 117.416 21.446,116.736 21.781,116.609 21.986 C 116.411 22.306,119.904 21.336,120.367 20.942 C 120.655 20.696,119.452 20.857,118.120 21.242 M113.800 22.890 C 113.140 23.125,112.245 23.561,111.811 23.858 C 111.377 24.156,110.764 24.400,110.449 24.400 C 110.133 24.400,106.551 26.065,102.487 28.100 C 95.087 31.806,93.979 32.394,91.000 34.194 C 90.120 34.725,88.815 35.472,88.100 35.854 C 87.385 36.236,86.800 36.681,86.800 36.844 C 86.800 37.007,88.777 35.990,91.194 34.586 C 95.378 32.154,103.734 27.823,107.600 26.082 C 109.746 25.116,114.754 22.987,115.600 22.680 C 116.133 22.487,116.133 22.463,115.600 22.463 C 115.270 22.463,114.460 22.655,113.800 22.890 M83.713 38.625 C 82.565 39.400,81.521 40.204,81.393 40.412 C 81.264 40.620,82.293 40.045,83.680 39.135 C 86.663 37.176,86.635 37.198,86.167 37.208 C 85.965 37.212,84.861 37.849,83.713 38.625 M79.600 41.624 C 79.050 42.062,76.748 43.862,74.485 45.625 C 72.222 47.388,70.053 49.138,69.666 49.515 C 69.278 49.892,67.800 51.213,66.381 52.451 C 63.662 54.823,55.313 63.221,53.308 65.600 C 46.316 73.899,35.586 89.314,35.604 91.035 C 35.606 91.236,36.081 90.590,36.660 89.600 C 40.340 83.302,44.866 76.754,49.653 70.800 C 57.399 61.167,67.126 51.647,76.473 44.552 C 78.603 42.935,80.458 41.430,80.596 41.206 C 80.953 40.628,80.739 40.718,79.600 41.624 M34.449 92.652 C 33.783 94.114,34.074 94.195,34.889 92.774 C 35.260 92.128,35.420 91.600,35.246 91.600 C 35.071 91.600,34.713 92.073,34.449 92.652 M33.280 94.880 C 33.016 95.144,32.800 95.516,32.800 95.707 C 32.800 95.897,31.974 97.796,30.965 99.927 C 27.221 107.828,26.669 109.105,25.416 112.770 C 24.857 114.403,24.414 116.023,24.430 116.370 C 24.447 116.716,24.985 115.470,25.626 113.600 C 26.267 111.730,27.096 109.480,27.468 108.600 C 28.508 106.139,33.440 95.434,33.871 94.700 C 34.139 94.244,33.819 94.341,33.280 94.880 M23.076 119.476 C 22.964 119.658,22.764 120.525,22.631 121.403 L 22.390 123.000 22.977 121.216 C 23.517 119.577,23.568 118.680,23.076 119.476 M21.591 124.224 C 21.377 124.788,21.114 126.273,21.006 127.524 L 20.811 129.800 21.333 127.400 C 21.620 126.080,21.989 124.595,22.154 124.100 C 22.569 122.853,22.070 122.963,21.591 124.224 M20.026 131.462 C 19.788 132.308,19.503 133.720,19.392 134.600 C 19.282 135.480,19.538 134.850,19.962 133.200 C 20.751 130.124,20.804 128.697,20.026 131.462 M18.626 137.117 C 18.221 138.394,17.624 143.746,17.658 145.800 C 17.678 147.038,17.885 146.048,18.202 143.200 C 18.483 140.670,18.842 138.105,19.000 137.500 C 19.314 136.294,18.993 135.963,18.626 137.117 M17.324 151.000 C 17.326 152.320,17.401 152.812,17.490 152.093 C 17.579 151.374,17.577 150.294,17.486 149.693 C 17.395 149.092,17.322 149.680,17.324 151.000 M16.558 156.300 C 16.166 159.767,16.253 173.464,16.677 174.884 C 16.859 175.496,17.000 171.102,17.000 164.784 C 17.000 158.633,16.969 153.600,16.932 153.600 C 16.894 153.600,16.726 154.815,16.558 156.300 M17.324 180.200 C 17.326 181.520,17.401 182.012,17.490 181.293 C 17.579 180.574,17.577 179.494,17.486 178.893 C 17.395 178.292,17.322 178.880,17.324 180.200 M17.823 186.800 C 17.994 190.364,18.635 193.898,19.037 193.496 C 19.136 193.397,19.028 192.435,18.797 191.358 C 18.567 190.281,18.212 187.960,18.009 186.200 L 17.641 183.000 17.823 186.800 M19.242 194.200 C 19.137 195.230,21.732 206.265,22.186 206.719 C 22.516 207.050,22.529 207.106,19.673 195.400 C 19.458 194.520,19.264 193.980,19.242 194.200 M22.438 207.600 C 22.382 208.606,23.202 211.154,23.677 211.447 C 23.964 211.625,24.011 211.541,23.808 211.213 C 23.634 210.932,23.262 209.869,22.982 208.851 C 22.701 207.833,22.456 207.270,22.438 207.600 M24.440 214.509 C 24.397 215.275,26.819 221.314,27.069 221.065 C 27.152 220.981,26.837 220.033,26.368 218.957 C 25.899 217.880,25.283 216.280,24.997 215.400 C 24.712 214.520,24.461 214.119,24.440 214.509 M27.200 221.746 C 27.200 222.222,28.348 224.800,28.559 224.800 C 28.669 224.800,28.479 224.125,28.138 223.300 C 27.496 221.751,27.200 221.261,27.200 221.746 M29.001 226.000 C 29.361 227.199,30.353 229.200,30.588 229.200 C 30.771 229.200,29.218 225.523,28.898 225.200 C 28.790 225.090,28.836 225.450,29.001 226.000 M30.800 230.089 C 30.800 230.431,31.158 231.136,31.596 231.656 L 32.392 232.600 31.734 231.200 C 30.912 229.448,30.800 229.315,30.800 230.089 M32.599 233.600 C 32.764 234.150,33.066 234.811,33.272 235.069 C 33.478 235.327,34.230 236.677,34.943 238.069 C 36.271 240.661,37.689 243.088,38.291 243.800 C 38.477 244.020,38.870 244.785,39.163 245.500 C 39.457 246.215,39.843 246.800,40.022 246.800 C 40.200 246.800,40.474 247.202,40.629 247.692 C 40.905 248.559,41.761 249.904,43.400 252.044 C 43.840 252.619,44.470 253.496,44.800 253.993 C 53.886 267.687,82.225 293.575,88.160 293.602 C 88.402 293.603,89.117 294.018,89.748 294.523 L 90.897 295.442 91.177 331.021 C 91.332 350.589,91.489 389.640,91.527 417.800 C 91.623 488.004,91.930 514.000,92.677 514.859 C 93.757 516.102,96.477 516.486,112.000 517.587 C 121.196 518.239,224.451 518.597,239.800 518.030 C 262.557 517.190,267.288 516.903,269.400 516.238 C 270.500 515.892,272.480 515.416,273.800 515.181 C 276.188 514.756,280.168 513.681,283.600 512.534 C 284.590 512.203,286.210 511.698,287.200 511.411 C 289.288 510.807,291.076 510.181,293.600 509.171 C 294.590 508.775,297.144 507.795,299.276 506.994 C 303.575 505.377,314.026 500.360,316.809 498.578 C 317.794 497.947,319.081 497.153,319.668 496.815 C 321.981 495.483,329.202 490.203,337.186 484.004 C 340.559 481.386,349.056 472.963,351.920 469.400 C 353.158 467.860,354.466 466.303,354.826 465.940 C 356.843 463.907,364.105 453.613,365.508 450.800 C 365.782 450.250,367.086 447.820,368.406 445.400 C 372.304 438.253,377.849 426.116,377.415 425.681 C 377.313 425.580,377.014 426.015,376.751 426.648 C 376.487 427.282,375.789 428.880,375.199 430.200 C 374.609 431.520,373.873 433.219,373.563 433.976 C 373.253 434.733,372.038 437.253,370.863 439.576 C 368.978 443.302,367.697 445.659,364.574 451.149 C 363.592 452.875,360.582 457.460,358.726 460.055 C 354.698 465.690,343.142 478.180,338.603 481.805 C 337.505 482.682,335.975 483.970,335.203 484.667 C 332.799 486.839,330.424 488.605,324.200 492.850 C 322.220 494.200,320.510 495.416,320.400 495.552 C 320.290 495.689,319.711 496.070,319.113 496.400 C 318.515 496.730,316.445 497.916,314.513 499.036 C 311.501 500.782,306.108 503.476,301.800 505.386 C 300.111 506.134,296.984 507.365,294.400 508.298 C 293.190 508.735,290.940 509.547,289.400 510.104 C 286.250 511.241,282.524 512.346,277.800 513.544 C 276.040 513.990,273.085 514.740,271.234 515.210 C 263.748 517.111,242.966 517.662,183.835 517.528 C 113.335 517.369,99.461 516.952,93.866 514.825 C 92.525 514.315,92.559 515.454,92.457 467.600 C 92.410 445.930,92.292 423.900,92.193 418.644 C 92.094 413.388,91.979 389.178,91.937 364.844 C 91.844 310.725,91.612 295.578,90.864 294.676 C 90.569 294.321,89.322 293.654,88.093 293.194 C 76.737 288.946,48.669 261.866,41.041 247.800 C 40.342 246.512,40.083 246.081,38.162 243.000 C 37.476 241.900,35.964 239.200,34.803 237.000 C 32.491 232.623,32.150 232.096,32.599 233.600 M334.400 253.400 C 334.283 262.494,334.353 269.334,334.567 269.800 C 334.769 270.240,338.645 274.290,343.180 278.800 C 347.715 283.310,352.226 288.080,353.203 289.400 C 354.181 290.720,355.885 292.801,356.991 294.024 C 360.386 297.782,364.580 304.532,368.751 312.953 C 374.150 323.852,374.800 325.254,374.800 325.999 C 374.800 326.351,374.967 326.811,375.172 327.020 C 375.377 327.229,375.809 328.120,376.133 329.000 C 376.457 329.880,377.191 331.860,377.764 333.400 C 379.773 338.798,380.728 341.820,381.149 344.101 C 381.382 345.367,381.740 346.717,381.943 347.101 C 382.147 347.486,382.518 349.150,382.767 350.800 C 383.016 352.450,383.474 354.700,383.784 355.800 C 384.341 357.777,385.036 367.067,385.483 378.487 C 385.730 384.821,384.816 397.536,383.820 401.600 C 382.125 408.523,380.801 414.251,380.815 414.600 C 380.853 415.542,381.897 412.295,382.744 408.600 C 383.248 406.400,384.006 403.299,384.430 401.708 C 384.853 400.118,385.204 397.958,385.208 396.908 C 385.212 395.859,385.481 393.020,385.804 390.600 C 386.564 384.923,386.566 379.871,385.812 371.200 C 385.477 367.350,385.049 362.400,384.862 360.200 C 384.546 356.480,383.709 351.591,382.739 347.800 C 382.514 346.920,382.108 345.120,381.836 343.800 C 381.565 342.480,381.132 340.897,380.875 340.282 C 380.617 339.668,380.303 338.678,380.177 338.082 C 379.958 337.054,379.563 335.999,377.671 331.400 C 377.218 330.300,376.377 328.140,375.801 326.600 C 375.225 325.060,374.511 323.260,374.215 322.600 C 373.920 321.940,373.481 320.950,373.242 320.400 C 373.002 319.850,372.633 319.130,372.422 318.800 C 372.212 318.470,370.605 315.287,368.852 311.728 C 367.099 308.168,365.317 304.748,364.891 304.128 C 364.466 303.507,363.285 301.740,362.267 300.200 C 361.249 298.660,359.737 296.552,358.908 295.516 C 352.566 287.593,346.794 281.101,342.621 277.200 C 341.091 275.770,338.751 273.575,337.420 272.323 L 335.000 270.045 334.800 253.923 L 334.600 237.800 334.400 253.400 M380.000 416.800 C 379.751 417.724,379.637 418.571,379.747 418.681 C 379.857 418.791,380.151 418.124,380.400 417.200 C 380.649 416.276,380.763 415.429,380.653 415.319 C 380.543 415.209,380.249 415.876,380.000 416.800 M378.200 422.800 C 377.825 423.929,377.608 424.942,377.718 425.052 C 377.828 425.162,378.225 424.329,378.600 423.200 C 378.975 422.071,379.192 421.058,379.082 420.948 C 378.972 420.838,378.575 421.671,378.200 422.800 " stroke="none" fill="#9caab0" fill-rule="evenodd"></path><path id="path4" d="M178.713 13.895 C 179.876 13.976,181.676 13.976,182.713 13.893 C 183.751 13.811,182.800 13.745,180.600 13.746 C 178.400 13.747,177.551 13.814,178.713 13.895 M271.905 13.883 C 272.402 13.979,273.122 13.975,273.505 13.875 C 273.887 13.775,273.480 13.696,272.600 13.701 C 271.720 13.705,271.407 13.787,271.905 13.883 M288.700 13.900 C 296.675 13.960,309.725 13.960,317.700 13.900 C 325.675 13.839,319.150 13.790,303.200 13.790 C 287.250 13.790,280.725 13.839,288.700 13.900 M334.909 18.800 C 334.909 19.790,334.987 20.195,335.082 19.700 C 335.178 19.205,335.178 18.395,335.082 17.900 C 334.987 17.405,334.909 17.810,334.909 18.800 M335.395 91.600 C 335.395 124.710,335.442 138.255,335.500 121.700 C 335.558 105.145,335.558 78.055,335.500 61.500 C 335.442 44.945,335.395 58.490,335.395 91.600 M64.800 54.600 C 63.828 55.590,63.123 56.400,63.233 56.400 C 63.343 56.400,64.228 55.590,65.200 54.600 C 66.172 53.610,66.877 52.800,66.767 52.800 C 66.657 52.800,65.772 53.610,64.800 54.600 M18.093 146.400 C 18.093 147.170,18.175 147.485,18.276 147.100 C 18.376 146.715,18.376 146.085,18.276 145.700 C 18.175 145.315,18.093 145.630,18.093 146.400 M17.701 150.600 C 17.705 151.480,17.787 151.793,17.883 151.295 C 17.979 150.798,17.975 150.078,17.875 149.695 C 17.775 149.313,17.696 149.720,17.701 150.600 M16.965 165.600 C 16.965 169.450,17.025 171.025,17.098 169.100 C 17.171 167.175,17.171 164.025,17.098 162.100 C 17.025 160.175,16.965 161.750,16.965 165.600 M18.093 184.800 C 18.093 185.570,18.175 185.885,18.276 185.500 C 18.376 185.115,18.376 184.485,18.276 184.100 C 18.175 183.715,18.093 184.030,18.093 184.800 M334.970 193.200 C 334.970 197.930,335.028 199.865,335.098 197.500 C 335.169 195.135,335.169 191.265,335.098 188.900 C 335.028 186.535,334.970 188.470,334.970 193.200 M334.567 221.800 C 334.567 225.980,334.626 227.636,334.698 225.479 C 334.771 223.323,334.770 219.903,334.698 217.879 C 334.625 215.856,334.566 217.620,334.567 221.800 M334.178 252.400 C 334.178 259.110,334.232 261.855,334.299 258.500 C 334.366 255.145,334.366 249.655,334.299 246.300 C 334.232 242.945,334.178 245.690,334.178 252.400 M333.650 268.024 C 333.623 268.806,333.883 269.796,334.230 270.224 C 334.576 270.651,334.717 270.730,334.544 270.400 C 334.370 270.070,334.109 269.080,333.964 268.200 L 333.700 266.600 333.650 268.024 M62.200 273.200 C 64.612 275.620,66.676 277.600,66.786 277.600 C 66.896 277.600,65.012 275.620,62.600 273.200 C 60.188 270.780,58.124 268.800,58.014 268.800 C 57.904 268.800,59.788 270.780,62.200 273.200 M342.403 278.571 C 344.495 280.787,347.323 283.770,348.687 285.200 C 350.051 286.630,351.670 288.418,352.284 289.173 C 352.898 289.929,354.480 291.838,355.800 293.416 C 357.120 294.995,358.610 296.807,359.111 297.443 C 359.613 298.079,359.852 298.240,359.643 297.800 C 359.434 297.360,358.411 296.010,357.371 294.800 C 356.331 293.590,354.482 291.351,353.262 289.824 C 352.043 288.298,348.245 284.234,344.822 280.795 C 341.400 277.355,340.312 276.355,342.403 278.571 M91.670 300.000 C 91.638 302.530,91.744 304.808,91.906 305.063 C 92.068 305.318,92.150 303.788,92.088 301.663 C 91.914 295.661,91.734 294.945,91.670 300.000 M362.209 302.196 C 363.414 304.064,364.400 305.671,364.400 305.767 C 364.400 306.074,367.586 311.411,367.593 311.116 C 367.604 310.692,364.378 304.697,363.747 303.969 C 363.446 303.621,363.200 303.217,363.200 303.069 C 363.200 302.754,360.396 298.800,360.171 298.800 C 360.087 298.800,361.004 300.328,362.209 302.196 M92.105 322.000 C 92.078 330.910,92.179 338.509,92.328 338.887 C 92.581 339.526,92.533 313.549,92.271 308.200 C 92.207 306.880,92.132 313.090,92.105 322.000 M372.199 321.198 C 372.707 322.637,374.000 324.917,374.000 324.374 C 374.000 324.261,373.640 323.463,373.200 322.600 C 372.760 321.737,372.400 320.810,372.400 320.539 C 372.400 320.269,372.225 319.939,372.012 319.807 C 371.799 319.676,371.883 320.301,372.199 321.198 M375.626 329.200 C 375.633 329.787,377.150 332.849,377.183 332.344 C 377.192 332.203,376.844 331.303,376.409 330.344 C 375.974 329.385,375.621 328.870,375.626 329.200 M377.628 334.600 C 377.628 334.820,377.886 335.450,378.200 336.000 C 378.514 336.550,378.772 336.820,378.772 336.600 C 378.772 336.380,378.514 335.750,378.200 335.200 C 377.886 334.650,377.628 334.380,377.628 334.600 M379.250 339.200 C 379.267 340.062,380.732 343.919,380.769 343.200 C 380.786 342.870,380.448 341.700,380.018 340.600 C 379.589 339.500,379.243 338.870,379.250 339.200 M92.301 395.938 C 92.356 426.442,92.451 454.730,92.510 458.800 C 92.570 462.870,92.660 437.996,92.709 403.524 C 92.759 369.052,92.665 340.764,92.500 340.662 C 92.335 340.560,92.245 365.434,92.301 395.938 M382.464 352.200 C 382.463 352.860,382.699 354.120,382.989 355.000 C 383.677 357.088,383.685 356.406,383.008 353.400 C 382.670 351.902,382.466 351.451,382.464 352.200 M383.917 360.800 C 384.022 363.110,384.173 365.075,384.254 365.167 C 384.519 365.469,384.312 359.026,384.016 357.800 C 383.857 357.140,383.813 358.490,383.917 360.800 M384.600 380.200 C 384.600 387.460,384.715 392.320,384.857 391.000 C 385.189 387.894,385.189 375.234,384.858 370.600 C 384.713 368.583,384.600 372.803,384.600 380.200 M384.074 396.227 C 384.033 397.562,383.718 399.605,383.373 400.767 C 383.028 401.928,382.826 402.959,382.924 403.057 C 383.370 403.503,384.443 398.010,384.302 396.000 L 384.148 393.800 384.074 396.227 M382.501 405.000 C 382.505 405.880,382.587 406.193,382.683 405.695 C 382.779 405.198,382.775 404.478,382.675 404.095 C 382.575 403.713,382.496 404.120,382.501 405.000 M367.457 445.009 C 366.901 446.005,366.618 446.712,366.829 446.582 C 367.248 446.323,368.923 443.200,368.642 443.200 C 368.547 443.200,368.013 444.014,367.457 445.009 M364.032 450.752 C 364.014 451.056,363.358 452.198,362.573 453.291 C 361.788 454.384,361.023 455.587,360.873 455.965 C 358.667 461.522,339.019 481.491,327.459 489.925 C 325.292 491.506,323.672 492.796,323.859 492.791 C 324.432 492.777,332.822 486.396,336.824 482.930 C 343.302 477.321,355.165 464.866,357.521 461.200 C 357.874 460.650,358.847 459.365,359.682 458.344 C 360.517 457.324,361.200 456.302,361.200 456.073 C 361.200 455.844,361.425 455.419,361.701 455.129 C 362.804 453.964,364.437 451.116,364.256 450.672 C 364.128 450.359,364.053 450.385,364.032 450.752 M92.509 469.200 C 92.509 470.190,92.587 470.595,92.682 470.100 C 92.778 469.605,92.778 468.795,92.682 468.300 C 92.587 467.805,92.509 468.210,92.509 469.200 M92.892 499.811 C 92.814 511.014,92.891 513.152,93.400 513.879 C 94.025 514.771,98.440 516.036,100.679 515.964 C 101.296 515.944,100.360 515.671,98.600 515.357 C 96.840 515.044,94.950 514.455,94.400 514.050 L 93.400 513.314 93.192 499.957 L 92.984 486.600 92.892 499.811 M320.832 494.463 C 318.228 496.308,318.470 496.531,321.128 494.735 C 323.431 493.179,323.369 493.230,323.167 493.063 C 323.075 492.988,322.024 493.618,320.832 494.463 M314.456 498.413 C 313.216 499.446,313.775 499.435,315.091 498.400 C 315.650 497.960,315.949 497.606,315.754 497.613 C 315.559 497.621,314.975 497.981,314.456 498.413 M311.800 500.000 C 311.140 500.437,310.780 500.792,311.000 500.788 C 311.401 500.782,313.576 499.223,313.200 499.212 C 313.090 499.208,312.460 499.563,311.800 500.000 M308.200 501.831 C 307.320 502.357,306.780 502.789,307.000 502.791 C 307.220 502.794,308.120 502.352,309.000 501.810 C 309.880 501.268,310.420 500.836,310.200 500.850 C 309.980 500.864,309.080 501.305,308.200 501.831 M300.600 505.414 C 299.940 505.717,299.681 505.972,300.024 505.982 C 300.366 505.992,300.996 505.736,301.424 505.413 C 302.372 504.696,302.169 504.696,300.600 505.414 M297.600 506.600 C 297.050 506.914,296.780 507.172,297.000 507.172 C 297.220 507.172,297.850 506.914,298.400 506.600 C 298.950 506.286,299.220 506.028,299.000 506.028 C 298.780 506.028,298.150 506.286,297.600 506.600 M291.600 508.800 C 290.776 509.064,290.741 509.126,291.400 509.154 C 291.840 509.173,292.470 509.013,292.800 508.800 C 293.501 508.347,293.014 508.347,291.600 508.800 M282.800 511.600 C 280.448 512.587,281.194 512.587,284.000 511.600 C 285.210 511.174,285.840 510.830,285.400 510.835 C 284.960 510.841,283.790 511.185,282.800 511.600 M276.800 513.217 C 275.590 513.621,274.870 513.959,275.200 513.970 C 275.530 513.980,276.880 513.641,278.200 513.216 C 279.520 512.791,280.240 512.452,279.800 512.463 C 279.360 512.473,278.010 512.813,276.800 513.217 M269.800 514.818 C 268.700 515.230,268.103 515.574,268.474 515.583 C 268.845 515.593,269.655 515.405,270.274 515.167 C 270.893 514.928,272.120 514.588,273.000 514.411 L 274.600 514.088 273.200 514.079 C 272.430 514.074,270.900 514.406,269.800 514.818 M257.200 516.036 C 254.670 516.194,237.300 516.444,218.600 516.592 C 199.900 516.741,184.420 516.937,184.200 517.028 C 183.626 517.266,251.694 516.824,257.200 516.554 C 259.730 516.430,263.150 516.188,264.800 516.017 L 267.800 515.706 264.800 515.727 C 263.150 515.739,259.730 515.878,257.200 516.036 M105.500 516.293 C 106.435 516.377,107.965 516.377,108.900 516.293 C 109.835 516.209,109.070 516.140,107.200 516.140 C 105.330 516.140,104.565 516.209,105.500 516.293 M114.515 516.696 C 115.788 516.776,117.768 516.775,118.915 516.694 C 120.062 516.614,119.020 516.549,116.600 516.550 C 114.180 516.551,113.242 516.616,114.515 516.696 M137.900 517.100 C 146.095 517.160,159.505 517.160,167.700 517.100 C 175.895 517.039,169.190 516.990,152.800 516.990 C 136.410 516.990,129.705 517.039,137.900 517.100 " stroke="none" fill="#b0c1c2" fill-rule="evenodd"></path><path id="path5" d="M194.500 13.500 C 200.825 13.562,211.175 13.562,217.500 13.500 C 223.825 13.438,218.650 13.387,206.000 13.387 C 193.350 13.387,188.175 13.438,194.500 13.500 M230.100 13.476 C 230.485 13.576,231.115 13.576,231.500 13.476 C 231.885 13.375,231.570 13.293,230.800 13.293 C 230.030 13.293,229.715 13.375,230.100 13.476 M233.505 13.483 C 234.002 13.579,234.722 13.575,235.105 13.475 C 235.487 13.375,235.080 13.296,234.200 13.301 C 233.320 13.305,233.007 13.387,233.505 13.483 M252.500 13.500 C 260.805 13.560,274.395 13.560,282.700 13.500 C 291.005 13.439,284.210 13.390,267.600 13.390 C 250.990 13.390,244.195 13.439,252.500 13.500 M172.691 13.889 C 173.401 13.977,174.661 13.979,175.491 13.892 C 176.321 13.805,175.740 13.733,174.200 13.731 C 172.660 13.729,171.981 13.800,172.691 13.889 M332.600 13.888 C 333.040 13.995,333.760 14.379,334.200 14.741 C 334.993 15.395,334.994 15.393,334.238 14.500 C 333.819 14.005,333.099 13.621,332.638 13.646 C 331.832 13.691,331.831 13.700,332.600 13.888 M335.350 27.400 C 335.351 29.820,335.416 30.758,335.496 29.485 C 335.576 28.212,335.575 26.232,335.494 25.085 C 335.414 23.938,335.349 24.980,335.350 27.400 M60.400 58.600 C 58.761 60.250,57.510 61.600,57.620 61.600 C 57.730 61.600,59.161 60.250,60.800 58.600 C 62.439 56.950,63.690 55.600,63.580 55.600 C 63.470 55.600,62.039 56.950,60.400 58.600 M54.378 65.100 L 53.000 66.600 54.500 65.222 C 55.896 63.938,56.184 63.600,55.878 63.600 C 55.812 63.600,55.137 64.275,54.378 65.100 M335.380 165.200 C 335.380 172.790,335.434 175.895,335.499 172.100 C 335.565 168.305,335.565 162.095,335.499 158.300 C 335.434 154.505,335.380 157.610,335.380 165.200 M17.693 182.000 C 17.693 182.770,17.775 183.085,17.876 182.700 C 17.976 182.315,17.976 181.685,17.876 181.300 C 17.775 180.915,17.693 181.230,17.693 182.000 M334.967 209.000 C 334.967 213.180,335.026 214.836,335.098 212.679 C 335.171 210.523,335.170 207.103,335.098 205.079 C 335.025 203.056,334.966 204.820,334.967 209.000 M334.551 233.600 C 334.551 236.130,334.616 237.165,334.696 235.900 C 334.775 234.635,334.775 232.565,334.696 231.300 C 334.616 230.035,334.551 231.070,334.551 233.600 M336.383 272.500 C 337.364 273.545,338.219 274.400,338.283 274.400 C 338.584 274.400,338.266 274.041,336.500 272.383 L 334.600 270.600 336.383 272.500 M63.000 274.400 C 64.083 275.500,65.060 276.400,65.170 276.400 C 65.280 276.400,64.483 275.500,63.400 274.400 C 62.317 273.300,61.340 272.400,61.230 272.400 C 61.120 272.400,61.917 273.300,63.000 274.400 M344.205 280.000 C 346.839 282.750,349.066 285.090,349.152 285.200 C 349.238 285.310,349.116 285.040,348.881 284.600 C 348.646 284.160,346.420 281.820,343.934 279.400 L 339.414 275.000 344.205 280.000 M350.000 286.125 C 350.000 286.194,350.585 286.779,351.300 287.425 L 352.600 288.600 351.425 287.300 C 350.330 286.088,350.000 285.816,350.000 286.125 M356.000 293.325 C 356.000 293.394,356.585 293.979,357.300 294.625 L 358.600 295.800 357.425 294.500 C 356.330 293.288,356.000 293.016,356.000 293.325 M91.766 312.000 C 91.766 316.070,91.825 317.735,91.898 315.700 C 91.971 313.665,91.971 310.335,91.898 308.300 C 91.825 306.265,91.766 307.930,91.766 312.000 M92.140 345.600 C 92.140 347.470,92.209 348.235,92.293 347.300 C 92.377 346.365,92.377 344.835,92.293 343.900 C 92.209 342.965,92.140 343.730,92.140 345.600 M92.190 379.400 C 92.190 396.120,92.240 402.902,92.300 394.470 C 92.360 386.039,92.360 372.359,92.300 364.070 C 92.239 355.782,92.190 362.680,92.190 379.400 M384.531 364.600 C 384.533 366.140,384.605 366.721,384.692 365.891 C 384.779 365.061,384.777 363.801,384.689 363.091 C 384.600 362.381,384.529 363.060,384.531 364.600 M384.914 371.400 C 384.917 372.500,384.995 372.903,385.087 372.295 C 385.179 371.686,385.177 370.786,385.082 370.295 C 384.987 369.803,384.911 370.300,384.914 371.400 M385.361 381.600 C 385.361 385.010,385.422 386.405,385.497 384.700 C 385.572 382.995,385.572 380.205,385.497 378.500 C 385.422 376.795,385.361 378.190,385.361 381.600 M384.901 390.600 C 384.905 391.480,384.987 391.793,385.083 391.295 C 385.179 390.798,385.175 390.078,385.075 389.695 C 384.975 389.313,384.896 389.720,384.901 390.600 M384.493 394.400 C 384.493 395.170,384.575 395.485,384.676 395.100 C 384.776 394.715,384.776 394.085,384.676 393.700 C 384.575 393.315,384.493 393.630,384.493 394.400 M382.893 404.400 C 382.893 405.170,382.975 405.485,383.076 405.100 C 383.176 404.715,383.176 404.085,383.076 403.700 C 382.975 403.315,382.893 403.630,382.893 404.400 M92.146 413.800 C 92.147 416.000,92.214 416.849,92.295 415.687 C 92.376 414.524,92.376 412.724,92.293 411.687 C 92.211 410.649,92.145 411.600,92.146 413.800 M358.519 459.825 C 358.123 460.389,357.352 461.424,356.804 462.125 C 356.250 462.834,356.122 463.152,356.515 462.842 C 356.904 462.535,357.751 461.500,358.397 460.542 C 359.640 458.701,359.746 458.075,358.519 459.825 M354.175 465.300 L 353.000 466.600 354.300 465.425 C 355.015 464.779,355.600 464.194,355.600 464.125 C 355.600 463.816,355.270 464.088,354.175 465.300 M345.000 475.008 C 340.600 479.469,337.719 482.552,338.599 481.859 C 341.330 479.708,354.126 466.497,353.137 466.849 C 353.062 466.876,349.400 470.547,345.000 475.008 M92.584 488.800 C 92.584 498.810,92.636 502.905,92.700 497.900 C 92.763 492.895,92.763 484.705,92.700 479.700 C 92.636 474.695,92.584 478.790,92.584 488.800 M334.175 485.300 L 333.000 486.600 334.300 485.425 C 335.015 484.779,335.600 484.194,335.600 484.125 C 335.600 483.816,335.270 484.088,334.175 485.300 M331.400 487.450 C 330.681 488.062,330.534 488.305,331.033 488.057 C 331.766 487.693,333.141 486.376,332.749 486.414 C 332.667 486.422,332.060 486.888,331.400 487.450 M315.144 498.424 L 314.200 499.247 315.400 498.545 C 316.979 497.620,317.003 497.600,316.511 497.600 C 316.279 497.600,315.664 497.971,315.144 498.424 M92.800 513.700 C 92.800 514.059,92.992 514.471,93.227 514.616 C 93.913 515.040,93.980 514.661,93.367 513.823 C 92.893 513.174,92.800 513.154,92.800 513.700 M100.707 516.290 C 101.426 516.379,102.506 516.377,103.107 516.286 C 103.708 516.195,103.120 516.122,101.800 516.124 C 100.480 516.126,99.988 516.201,100.707 516.290 M263.900 516.282 C 264.395 516.378,265.205 516.378,265.700 516.282 C 266.195 516.187,265.790 516.109,264.800 516.109 C 263.810 516.109,263.405 516.187,263.900 516.282 M109.705 516.687 C 110.314 516.779,111.214 516.777,111.705 516.682 C 112.197 516.587,111.700 516.511,110.600 516.514 C 109.500 516.517,109.097 516.595,109.705 516.687 M255.911 516.693 C 256.851 516.778,258.291 516.777,259.111 516.691 C 259.930 516.605,259.160 516.536,257.400 516.537 C 255.640 516.539,254.970 516.609,255.911 516.693 M116.915 517.096 C 118.188 517.176,120.168 517.175,121.315 517.094 C 122.462 517.014,121.420 516.949,119.000 516.950 C 116.580 516.951,115.642 517.016,116.915 517.096 M243.100 517.096 C 244.475 517.174,246.725 517.174,248.100 517.096 C 249.475 517.018,248.350 516.954,245.600 516.954 C 242.850 516.954,241.725 517.018,243.100 517.096 M165.500 517.500 C 178.755 517.558,200.445 517.558,213.700 517.500 C 226.955 517.441,216.110 517.394,189.600 517.394 C 163.090 517.394,152.245 517.441,165.500 517.500 " stroke="none" fill="#a4b4b4" fill-rule="evenodd"></path><path id="path6" d="M179.200 13.969 C 176.230 14.116,192.790 14.274,216.000 14.322 C 281.020 14.454,332.528 14.865,333.283 15.256 C 334.180 15.721,334.381 16.963,334.797 24.600 L 335.145 31.000 334.987 23.423 C 334.835 16.166,334.790 15.808,333.914 14.945 L 333.000 14.043 258.800 13.873 C 217.990 13.779,182.170 13.822,179.200 13.969 M151.800 14.807 C 148.720 15.192,146.868 15.528,147.684 15.553 C 149.609 15.614,156.912 14.819,158.314 14.396 C 160.020 13.882,158.360 13.987,151.800 14.807 M163.900 14.282 C 164.395 14.378,165.205 14.378,165.700 14.282 C 166.195 14.187,165.790 14.109,164.800 14.109 C 163.810 14.109,163.405 14.187,163.900 14.282 M142.163 15.844 C 141.923 15.943,140.573 16.289,139.163 16.613 C 136.689 17.181,136.670 17.194,138.626 16.997 C 140.796 16.778,144.733 15.684,143.400 15.671 C 142.960 15.667,142.404 15.744,142.163 15.844 M133.200 17.650 C 132.650 17.870,131.300 18.233,130.200 18.458 C 127.470 19.014,118.600 21.818,115.863 22.989 C 108.058 26.328,104.829 27.827,99.107 30.764 C 91.097 34.876,90.484 35.207,89.211 36.103 C 87.678 37.183,88.776 36.875,91.000 35.601 C 96.319 32.554,111.241 25.403,116.066 23.589 C 122.635 21.119,123.450 20.844,127.200 19.830 C 136.049 17.437,136.602 17.264,135.400 17.257 C 134.740 17.254,133.750 17.431,133.200 17.650 M86.800 37.487 C 86.250 37.841,85.080 38.597,84.200 39.166 C 74.253 45.596,59.513 59.251,50.700 70.200 C 48.044 73.500,45.758 76.290,45.620 76.400 C 45.483 76.510,44.370 78.130,43.149 80.000 C 41.928 81.870,40.270 84.409,39.464 85.641 C 38.659 86.874,38.000 87.991,38.000 88.124 C 38.000 88.256,37.536 89.047,36.969 89.882 C 35.663 91.804,28.421 106.650,28.386 107.475 C 28.379 107.654,28.025 108.520,27.600 109.400 C 27.175 110.280,26.821 111.202,26.814 111.449 C 26.806 111.696,26.425 112.746,25.967 113.782 C 25.508 114.819,25.208 115.741,25.299 115.832 C 25.496 116.030,26.749 113.263,28.212 109.400 C 28.795 107.860,29.685 105.700,30.191 104.600 C 30.696 103.500,31.681 101.340,32.379 99.800 C 33.683 96.920,35.138 94.057,36.543 91.600 C 36.984 90.830,37.637 89.660,37.995 89.000 C 39.127 86.910,43.267 80.475,44.685 78.600 C 45.185 77.940,45.860 77.040,46.187 76.600 C 47.014 75.485,52.895 68.216,54.922 65.802 C 58.727 61.272,68.519 51.876,74.000 47.496 C 75.870 46.001,78.095 44.199,78.944 43.489 C 79.794 42.780,82.044 41.152,83.944 39.871 C 87.197 37.678,88.396 36.772,87.980 36.821 C 87.881 36.833,87.350 37.132,86.800 37.487 M24.500 118.100 C 24.070 119.275,24.080 119.326,24.612 118.624 C 25.121 117.952,25.421 116.800,25.088 116.800 C 25.026 116.800,24.761 117.385,24.500 118.100 M22.913 122.933 C 22.426 124.730,21.903 126.920,21.751 127.800 C 21.599 128.680,21.216 130.030,20.900 130.800 C 20.519 131.728,20.488 132.043,20.808 131.734 C 21.502 131.066,24.338 120.205,23.927 119.793 C 23.856 119.723,23.400 121.136,22.913 122.933 M334.914 121.800 C 334.917 122.900,334.995 123.303,335.087 122.695 C 335.179 122.086,335.177 121.186,335.082 120.695 C 334.987 120.203,334.911 120.700,334.914 121.800 M334.748 142.100 C 334.719 151.395,334.650 160.530,334.595 162.400 C 334.539 164.270,334.382 177.770,334.246 192.400 C 334.110 207.030,333.904 229.170,333.789 241.600 C 333.673 254.030,333.480 265.279,333.359 266.598 C 333.237 267.916,333.287 268.846,333.469 268.664 C 334.153 267.981,335.741 125.200,335.065 125.200 C 334.919 125.200,334.776 132.805,334.748 142.100 M19.665 136.042 C 19.055 138.964,18.018 148.307,18.073 150.400 C 18.117 152.106,18.193 151.644,19.000 144.800 C 19.350 141.830,19.826 138.391,20.059 137.158 C 20.660 133.966,20.308 132.965,19.665 136.042 M17.459 155.053 C 17.317 156.740,17.230 162.099,17.267 166.960 L 17.333 175.800 17.620 164.000 C 17.778 157.510,17.865 152.152,17.813 152.093 C 17.761 152.034,17.602 153.366,17.459 155.053 M17.825 179.600 C 18.570 187.043,19.315 192.502,19.820 194.200 C 20.524 196.573,20.465 195.777,19.451 189.200 C 19.129 187.110,18.738 184.050,18.582 182.400 C 18.427 180.750,18.152 179.040,17.972 178.600 C 17.761 178.083,17.709 178.437,17.825 179.600 M20.818 198.820 C 20.827 198.919,21.100 199.900,21.424 201.000 L 22.014 203.000 21.786 201.200 C 21.661 200.210,21.388 199.229,21.180 199.020 C 20.971 198.811,20.808 198.721,20.818 198.820 M22.037 203.800 C 22.023 204.020,22.359 205.280,22.784 206.600 C 23.209 207.920,23.553 208.640,23.547 208.200 C 23.537 207.357,22.080 203.112,22.037 203.800 M24.119 211.600 C 24.244 211.930,24.719 213.370,25.173 214.800 C 25.972 217.317,26.783 219.019,26.792 218.200 C 26.799 217.635,24.508 211.570,24.170 211.258 C 24.016 211.116,23.993 211.270,24.119 211.600 M27.930 221.982 C 28.298 222.851,28.656 223.404,28.724 223.209 C 28.850 222.849,27.713 220.400,27.419 220.400 C 27.331 220.400,27.561 221.112,27.930 221.982 M30.002 226.504 C 29.996 227.353,36.450 239.682,38.658 243.041 C 39.396 244.164,40.000 245.216,40.000 245.378 C 40.000 245.541,40.360 246.131,40.800 246.691 C 41.365 247.409,41.600 247.522,41.600 247.078 C 41.600 246.731,41.417 246.334,41.194 246.196 C 40.971 246.059,40.427 245.283,39.984 244.473 C 39.542 243.663,38.850 242.460,38.446 241.800 C 36.882 239.239,35.800 237.283,34.302 234.306 C 33.445 232.605,32.577 231.109,32.372 230.983 C 32.168 230.856,31.994 230.448,31.988 230.076 C 31.976 229.426,30.006 225.883,30.002 226.504 M42.321 249.090 C 42.805 249.768,43.200 250.426,43.200 250.550 C 43.200 250.772,48.132 257.351,48.976 258.255 C 49.209 258.505,50.358 259.953,51.529 261.474 C 59.976 272.446,80.375 289.723,88.800 293.041 C 89.790 293.431,90.936 294.031,91.346 294.375 C 92.035 294.951,92.082 294.940,91.946 294.230 C 91.844 293.690,90.963 293.150,89.000 292.423 C 85.345 291.071,79.568 287.648,76.983 285.304 C 76.553 284.913,74.310 283.033,72.000 281.126 C 64.841 275.217,56.141 266.357,50.271 259.000 C 48.164 256.360,46.207 253.929,45.920 253.597 C 45.634 253.265,44.721 251.968,43.890 250.715 C 43.060 249.461,42.170 248.305,41.912 248.145 C 41.654 247.986,41.838 248.411,42.321 249.090 M342.339 278.769 C 343.004 279.877,351.800 289.200,352.180 289.200 C 352.336 289.200,351.563 288.255,350.462 287.100 C 346.637 283.089,342.201 278.539,342.339 278.769 M358.012 296.693 C 358.942 298.065,359.990 299.415,360.341 299.693 C 361.075 300.276,358.259 296.203,357.095 295.000 C 356.670 294.560,357.082 295.322,358.012 296.693 M92.524 315.800 C 92.526 317.120,92.601 317.612,92.690 316.893 C 92.779 316.174,92.777 315.094,92.686 314.493 C 92.595 313.892,92.522 314.480,92.524 315.800 M92.573 328.200 C 92.573 333.480,92.630 335.585,92.699 332.877 C 92.768 330.169,92.768 325.849,92.699 323.277 C 92.629 320.705,92.572 322.920,92.573 328.200 M379.228 340.676 C 379.213 341.158,379.380 341.664,379.600 341.800 C 380.073 342.092,380.073 341.701,379.600 340.600 C 379.269 339.829,379.255 339.831,379.228 340.676 M92.931 344.600 C 92.933 346.140,93.005 346.721,93.092 345.891 C 93.179 345.061,93.177 343.801,93.089 343.091 C 93.000 342.381,92.929 343.060,92.931 344.600 M92.967 417.400 C 92.978 455.240,93.085 490.790,93.207 496.400 C 93.328 502.010,93.440 485.540,93.457 459.800 C 93.473 434.060,93.365 398.510,93.217 380.800 C 93.006 355.530,92.952 363.407,92.967 417.400 M384.148 379.459 C 384.177 384.771,384.335 389.035,384.500 388.935 C 384.894 388.695,384.821 374.377,384.413 371.800 C 384.216 370.562,384.116 373.479,384.148 379.459 M345.901 473.217 C 338.949 480.256,337.162 482.468,343.088 476.700 C 346.287 473.587,353.054 466.380,352.743 466.417 C 352.664 466.427,349.585 469.487,345.901 473.217 M277.000 512.800 C 276.708 513.273,277.099 513.273,278.200 512.800 C 278.971 512.469,278.969 512.455,278.124 512.428 C 277.642 512.413,277.136 512.580,277.000 512.800 M94.576 514.220 C 95.436 514.862,96.168 514.996,95.830 514.448 C 95.710 514.255,95.205 513.994,94.706 513.868 C 93.832 513.648,93.827 513.660,94.576 514.220 M264.305 515.483 C 264.802 515.579,265.522 515.575,265.905 515.475 C 266.287 515.375,265.880 515.296,265.000 515.301 C 264.120 515.305,263.807 515.387,264.305 515.483 M102.505 515.887 C 103.114 515.979,104.014 515.977,104.505 515.882 C 104.997 515.787,104.500 515.711,103.400 515.714 C 102.300 515.717,101.897 515.795,102.505 515.887 M246.800 516.007 L 241.800 516.238 247.476 516.319 C 250.598 516.364,253.240 516.258,253.348 516.085 C 253.579 515.711,253.274 515.707,246.800 516.007 M231.700 516.694 C 232.745 516.776,234.455 516.776,235.500 516.694 C 236.545 516.612,235.690 516.544,233.600 516.544 C 231.510 516.544,230.655 516.612,231.700 516.694 " stroke="none" fill="#c0cccc" fill-rule="evenodd"></path><path id="path7" d="M158.314 14.419 C 156.807 14.841,149.601 15.600,147.104 15.600 C 145.175 15.600,143.436 15.930,134.200 18.048 C 129.496 19.127,123.905 20.679,121.400 21.600 C 115.013 23.949,112.333 25.030,108.866 26.659 C 104.677 28.627,94.470 33.704,90.586 35.752 C 87.780 37.231,80.833 41.850,78.800 43.589 C 78.030 44.247,75.870 46.007,74.000 47.499 C 68.532 51.863,58.734 61.263,54.922 65.802 C 52.895 68.216,47.014 75.485,46.187 76.600 C 45.860 77.040,45.185 77.940,44.685 78.600 C 43.267 80.475,39.127 86.910,37.995 89.000 C 37.637 89.660,36.984 90.830,36.543 91.600 C 35.138 94.057,33.683 96.920,32.379 99.800 C 31.681 101.340,30.696 103.500,30.191 104.600 C 29.685 105.700,28.797 107.860,28.218 109.400 C 27.638 110.940,26.722 113.149,26.182 114.309 C 25.642 115.469,25.200 116.734,25.200 117.120 C 25.200 117.506,24.955 118.177,24.655 118.611 C 24.355 119.045,23.905 120.480,23.655 121.800 C 22.989 125.306,21.378 131.101,20.904 131.690 C 20.679 131.971,20.401 133.280,20.287 134.600 C 20.173 135.920,19.709 139.700,19.257 143.000 C 17.703 154.339,16.900 175.701,17.926 178.409 C 18.132 178.954,18.428 180.750,18.583 182.400 C 18.739 184.050,19.130 187.110,19.454 189.200 C 19.778 191.290,20.193 194.217,20.376 195.704 C 20.559 197.191,20.899 198.637,21.131 198.917 C 21.364 199.198,21.732 200.501,21.949 201.814 C 22.166 203.126,22.603 204.922,22.920 205.805 C 23.238 206.688,23.631 208.218,23.794 209.205 C 23.957 210.192,24.330 211.450,24.622 212.000 C 24.914 212.550,25.635 214.530,26.223 216.400 C 26.812 218.270,27.611 220.520,27.999 221.400 C 28.969 223.601,32.015 230.066,32.429 230.800 C 32.615 231.130,33.462 232.750,34.313 234.400 C 35.824 237.331,36.967 239.378,38.446 241.800 C 39.218 243.063,40.579 245.387,41.141 246.400 C 41.324 246.730,41.637 247.294,41.837 247.654 C 42.363 248.601,45.310 252.889,45.920 253.597 C 46.207 253.929,48.164 256.360,50.271 259.000 C 56.141 266.357,64.841 275.217,72.000 281.126 C 74.310 283.033,76.553 284.913,76.983 285.304 C 79.563 287.644,86.605 291.821,88.665 292.233 C 90.673 292.635,90.706 292.314,90.994 269.800 C 91.258 249.172,91.588 242.114,92.345 240.888 C 92.673 240.359,98.178 238.946,101.200 238.617 C 104.463 238.261,198.831 238.095,233.200 238.386 C 264.434 238.649,266.399 238.758,274.200 240.652 C 275.520 240.972,277.770 241.478,279.200 241.775 C 283.370 242.642,288.347 244.020,289.518 244.631 C 290.113 244.941,291.084 245.196,291.676 245.198 C 292.268 245.199,292.856 245.367,292.982 245.571 C 293.108 245.775,293.884 246.152,294.706 246.410 C 296.683 247.029,300.846 248.656,302.266 249.364 C 302.890 249.675,304.480 250.427,305.800 251.034 C 307.120 251.642,308.470 252.357,308.800 252.622 C 309.130 252.888,309.836 253.239,310.369 253.402 C 310.902 253.565,311.532 253.858,311.769 254.054 C 312.655 254.785,317.717 258.028,320.251 259.488 C 323.639 261.439,324.171 261.778,327.880 264.351 C 329.816 265.694,331.434 266.520,332.190 266.551 L 333.400 266.600 333.645 248.800 C 333.779 239.010,334.020 216.330,334.179 198.400 C 334.338 180.470,334.526 164.180,334.595 162.200 C 335.581 134.192,335.119 19.144,334.010 16.226 C 333.457 14.771,335.667 14.821,261.681 14.593 C 222.806 14.474,183.890 14.317,175.200 14.246 C 166.510 14.174,158.911 14.252,158.314 14.419 M211.092 15.612 C 233.481 15.597,269.771 15.565,291.737 15.540 L 331.673 15.495 332.537 16.359 L 333.400 17.223 333.286 122.112 C 333.223 179.800,333.107 235.280,333.028 245.400 L 332.886 263.800 331.369 263.703 C 329.894 263.610,329.112 263.162,325.200 260.174 C 324.210 259.418,323.130 258.679,322.800 258.532 C 322.470 258.384,321.730 257.889,321.156 257.432 C 318.884 255.623,315.292 253.500,311.900 251.963 C 310.855 251.489,310.000 250.981,310.000 250.834 C 310.000 250.686,309.190 250.349,308.200 250.084 C 307.210 249.820,306.400 249.422,306.400 249.202 C 306.400 248.981,305.884 248.800,305.254 248.800 C 304.624 248.800,303.650 248.440,303.091 248.000 C 302.531 247.560,301.740 247.200,301.331 247.200 C 300.922 247.200,299.916 246.840,299.096 246.400 C 298.275 245.960,297.299 245.600,296.928 245.600 C 296.556 245.600,295.521 245.269,294.626 244.865 C 293.732 244.460,292.104 243.910,291.010 243.642 C 289.915 243.374,288.912 242.981,288.780 242.768 C 288.649 242.555,287.835 242.295,286.971 242.190 C 284.419 241.880,283.200 241.559,283.200 241.197 C 283.200 241.010,282.165 240.732,280.900 240.578 C 279.635 240.424,278.143 240.066,277.583 239.782 C 277.024 239.498,275.161 239.070,273.443 238.831 C 271.724 238.592,270.154 238.295,269.953 238.171 C 269.751 238.046,269.095 237.859,268.493 237.754 C 267.892 237.649,266.950 237.481,266.400 237.379 C 257.419 235.725,96.539 236.531,93.250 238.247 C 92.672 238.549,91.879 238.796,91.487 238.798 C 91.096 238.799,90.676 239.115,90.556 239.500 C 90.436 239.885,90.078 240.684,89.760 241.276 C 89.282 242.168,89.157 246.306,89.032 265.476 C 88.950 278.194,88.833 288.841,88.774 289.135 C 88.430 290.847,85.519 290.188,82.800 287.782 C 82.250 287.296,81.361 286.671,80.825 286.395 C 80.289 286.118,79.659 285.730,79.425 285.533 C 79.191 285.336,77.380 283.910,75.400 282.365 C 71.155 279.052,68.861 277.108,66.394 274.736 C 65.401 273.781,63.584 272.071,62.356 270.936 C 60.231 268.971,56.540 264.749,51.903 258.979 C 51.186 258.087,50.020 256.647,49.311 255.779 C 45.134 250.660,39.949 242.739,37.674 238.000 C 37.410 237.450,36.811 236.370,36.343 235.600 C 34.388 232.384,31.234 225.996,30.219 223.200 C 29.621 221.550,28.897 219.660,28.611 219.000 C 27.546 216.540,26.342 213.374,26.178 212.600 C 26.084 212.160,25.741 210.990,25.416 210.000 C 24.024 205.769,23.247 202.872,23.001 201.000 C 22.856 199.900,22.455 198.561,22.110 198.024 C 21.765 197.488,21.425 196.048,21.355 194.824 C 21.285 193.601,21.035 191.520,20.799 190.200 C 19.206 181.277,19.053 179.244,18.932 165.400 C 18.837 154.458,18.932 150.919,19.366 149.200 C 19.671 147.990,20.037 145.594,20.179 143.877 C 20.321 142.159,20.601 140.324,20.800 139.800 C 20.999 139.276,21.284 137.441,21.433 135.723 C 21.581 134.006,21.930 132.330,22.208 132.000 C 22.486 131.670,22.830 130.590,22.973 129.600 C 23.477 126.112,26.169 116.477,27.220 114.400 C 27.610 113.630,28.334 112.010,28.829 110.800 C 32.496 101.833,36.666 93.363,39.559 89.002 C 40.144 88.121,40.934 86.770,41.316 86.000 C 41.697 85.230,42.322 84.122,42.705 83.537 C 43.597 82.173,46.803 77.580,47.251 77.025 C 47.440 76.791,48.960 74.890,50.629 72.800 C 57.480 64.222,69.927 51.813,76.694 46.816 C 77.845 45.966,79.055 45.029,79.384 44.735 C 79.712 44.441,80.389 43.893,80.890 43.517 C 81.390 43.141,82.366 42.376,83.058 41.817 C 83.750 41.258,84.432 40.800,84.574 40.800 C 84.717 40.800,85.174 40.485,85.590 40.100 C 86.007 39.715,87.209 38.950,88.262 38.400 C 89.315 37.850,90.361 37.262,90.588 37.092 C 91.321 36.545,96.157 33.980,97.700 33.320 C 98.525 32.967,99.200 32.526,99.200 32.339 C 99.200 32.153,99.382 32.000,99.605 32.000 C 99.827 32.000,101.913 31.100,104.239 30.000 C 106.565 28.900,108.643 28.000,108.855 28.000 C 109.068 28.000,109.907 27.642,110.721 27.205 C 112.521 26.237,115.836 24.801,116.278 24.798 C 116.455 24.796,117.050 24.561,117.600 24.275 C 118.150 23.989,120.400 23.196,122.600 22.512 C 126.361 21.342,127.707 20.950,135.200 18.842 C 136.850 18.377,138.920 17.997,139.800 17.997 C 140.680 17.996,142.120 17.784,143.000 17.525 C 143.880 17.266,144.735 17.087,144.900 17.127 C 145.065 17.167,145.200 17.049,145.200 16.865 C 145.200 16.680,147.561 16.498,150.446 16.460 C 153.331 16.422,155.859 16.287,156.065 16.160 C 156.270 16.033,159.062 15.931,162.269 15.933 C 165.476 15.936,168.482 15.793,168.950 15.616 C 169.417 15.439,169.931 15.371,170.092 15.466 C 170.253 15.560,188.703 15.626,211.092 15.612 " stroke="none" fill="#e4ecec" fill-rule="evenodd"></path><path id="path8" d="M332.809 268.314 C 332.795 269.728,333.802 271.018,338.991 276.234 C 345.428 282.705,352.957 290.778,355.341 293.767 C 357.506 296.480,358.309 297.345,357.785 296.400 C 356.818 294.656,354.144 291.411,351.158 288.358 C 349.311 286.468,346.549 283.500,345.021 281.761 C 343.493 280.023,340.451 276.805,338.262 274.611 C 336.072 272.417,333.952 269.897,333.549 269.011 C 332.984 267.767,332.816 267.608,332.809 268.314 M91.974 294.400 C 91.854 294.730,91.893 297.700,92.061 301.000 C 92.708 313.730,92.822 320.731,93.061 362.400 C 93.196 386.050,93.397 405.490,93.508 405.600 C 93.769 405.861,93.264 315.346,92.958 307.000 C 92.658 298.833,92.252 293.633,91.974 294.400 M360.043 300.200 C 361.190 301.960,362.460 303.888,362.865 304.484 C 363.269 305.080,363.600 305.823,363.600 306.135 C 363.600 306.447,363.826 306.889,364.101 307.118 C 364.377 307.347,365.228 308.764,365.992 310.267 C 366.756 311.770,367.611 313.238,367.891 313.529 C 368.171 313.819,368.400 314.290,368.400 314.575 C 368.400 314.859,368.737 315.521,369.148 316.046 C 369.559 316.571,370.021 317.573,370.174 318.272 C 370.326 318.972,370.710 319.759,371.026 320.021 C 371.342 320.283,371.600 320.844,371.600 321.267 C 371.600 321.690,372.050 322.882,372.600 323.915 C 373.150 324.948,373.600 326.088,373.600 326.448 C 373.600 326.808,373.870 327.326,374.200 327.600 C 374.530 327.874,374.802 328.391,374.804 328.749 C 374.806 329.107,375.250 330.300,375.791 331.400 C 376.332 332.500,376.781 333.765,376.787 334.211 C 376.794 334.657,377.075 335.414,377.410 335.893 C 377.746 336.373,378.210 337.791,378.442 339.045 C 378.674 340.299,379.098 341.702,379.384 342.163 C 379.670 342.623,380.016 343.882,380.153 344.960 C 380.289 346.037,380.590 347.147,380.822 347.426 C 381.053 347.705,381.401 349.467,381.594 351.342 C 381.787 353.217,382.148 355.129,382.395 355.591 C 383.015 356.749,383.586 364.223,383.593 371.276 C 383.597 374.508,383.735 377.235,383.900 377.337 C 384.772 377.871,383.972 358.358,382.985 355.027 C 382.663 353.942,382.400 352.555,382.400 351.943 C 382.400 350.367,380.402 342.719,379.802 342.000 C 379.527 341.670,379.213 340.561,379.104 339.536 C 378.921 337.813,378.441 336.349,376.305 331.000 C 375.866 329.900,375.149 328.100,374.712 327.000 C 374.275 325.900,373.585 324.280,373.180 323.400 C 372.774 322.520,371.965 320.720,371.382 319.400 C 369.083 314.199,365.799 307.988,365.036 307.398 C 364.750 307.178,364.378 306.548,364.209 305.998 C 364.039 305.449,363.563 304.678,363.150 304.284 C 362.738 303.891,362.400 303.405,362.400 303.204 C 362.400 302.757,360.409 299.830,358.997 298.200 C 358.425 297.540,358.896 298.440,360.043 300.200 M383.988 384.700 C 383.954 388.729,382.865 400.731,382.465 401.478 C 382.216 401.944,381.917 403.198,381.801 404.263 C 381.429 407.694,381.138 409.191,380.803 409.398 C 380.622 409.510,380.347 410.546,380.191 411.700 C 379.809 414.518,378.570 419.320,377.813 420.917 C 377.475 421.629,377.025 422.749,376.814 423.406 C 375.820 426.499,374.929 428.685,374.294 429.589 C 373.912 430.133,373.600 430.817,373.600 431.110 C 373.600 431.402,373.260 432.307,372.844 433.121 C 372.428 433.934,371.503 435.770,370.789 437.200 C 367.927 442.930,366.418 445.717,365.824 446.373 C 365.481 446.753,365.200 447.342,365.200 447.683 C 365.200 448.023,364.920 448.535,364.577 448.819 C 364.234 449.104,363.698 449.891,363.385 450.568 C 362.694 452.064,362.085 453.035,360.900 454.528 C 360.405 455.151,360.000 455.828,360.000 456.031 C 360.000 456.234,359.719 456.715,359.376 457.100 C 359.034 457.485,357.861 458.970,356.770 460.400 C 352.927 465.439,348.260 470.579,342.636 475.968 C 340.896 477.636,338.430 480.035,337.156 481.300 C 335.882 482.565,334.694 483.600,334.516 483.600 C 334.338 483.600,333.968 483.960,333.693 484.400 C 333.418 484.840,332.998 485.200,332.760 485.200 C 332.522 485.200,331.379 486.010,330.221 487.000 C 329.062 487.990,327.979 488.800,327.814 488.800 C 327.650 488.800,326.810 489.358,325.948 490.041 C 324.037 491.555,316.905 496.349,315.800 496.863 C 315.360 497.067,314.100 497.773,313.000 498.431 C 311.900 499.089,310.505 499.841,309.900 500.101 C 309.295 500.362,308.800 500.716,308.800 500.888 C 308.800 501.059,308.601 501.200,308.358 501.200 C 308.115 501.200,306.101 502.100,303.883 503.200 C 301.665 504.300,299.546 505.200,299.174 505.200 C 298.802 505.200,298.290 505.451,298.035 505.758 C 297.780 506.065,296.990 506.425,296.278 506.559 C 295.567 506.692,294.314 507.161,293.494 507.601 C 292.674 508.040,291.528 508.400,290.949 508.400 C 290.369 508.400,289.333 508.737,288.647 509.148 C 287.961 509.560,286.518 510.010,285.440 510.149 C 284.363 510.288,283.256 510.588,282.980 510.816 C 282.705 511.045,281.343 511.415,279.954 511.638 C 278.564 511.862,277.203 512.232,276.928 512.460 C 276.654 512.687,275.087 513.041,273.446 513.244 C 271.806 513.448,269.954 513.880,269.332 514.205 C 268.709 514.529,267.210 514.817,266.000 514.844 L 263.800 514.892 265.400 515.227 C 267.168 515.598,268.962 515.361,270.194 514.594 C 270.637 514.318,272.138 513.997,273.530 513.881 C 275.017 513.757,276.348 513.409,276.761 513.035 C 277.181 512.655,278.179 512.400,279.247 512.400 C 280.241 512.400,281.725 512.046,282.600 511.600 C 283.463 511.160,284.675 510.800,285.293 510.800 C 285.910 510.800,287.523 510.350,288.877 509.800 C 290.230 509.250,291.481 508.800,291.656 508.800 C 293.335 508.800,310.783 500.902,314.118 498.633 C 314.953 498.065,315.746 497.600,315.881 497.600 C 316.552 497.600,330.312 487.967,331.222 486.860 C 331.565 486.444,332.211 485.987,332.658 485.845 C 334.065 485.398,355.417 463.894,357.128 461.200 C 357.478 460.650,358.447 459.365,359.282 458.344 C 360.117 457.324,360.800 456.342,360.800 456.162 C 360.800 455.982,361.520 454.808,362.400 453.554 C 363.280 452.299,364.000 451.101,364.000 450.890 C 364.000 450.680,364.376 450.030,364.835 449.447 C 366.499 447.331,373.447 433.604,376.537 426.324 C 378.214 422.375,380.800 413.316,380.800 411.391 C 380.800 410.824,381.060 409.857,381.378 409.243 C 381.696 408.628,382.071 407.152,382.212 405.963 C 382.353 404.773,382.715 402.990,383.016 402.000 C 384.011 398.732,384.985 383.200,384.196 383.200 C 384.088 383.200,383.994 383.875,383.988 384.700 M93.740 422.000 C 93.740 423.870,93.809 424.635,93.893 423.700 C 93.977 422.765,93.977 421.235,93.893 420.300 C 93.809 419.365,93.740 420.130,93.740 422.000 M93.737 437.000 C 93.739 438.760,93.809 439.430,93.893 438.489 C 93.978 437.549,93.977 436.109,93.891 435.289 C 93.805 434.470,93.736 435.240,93.737 437.000 M93.701 441.800 C 93.705 442.680,93.787 442.993,93.883 442.495 C 93.979 441.998,93.975 441.278,93.875 440.895 C 93.775 440.513,93.696 440.920,93.701 441.800 M93.753 455.000 C 93.753 457.640,93.818 458.668,93.897 457.284 C 93.975 455.901,93.974 453.741,93.895 452.484 C 93.816 451.228,93.752 452.360,93.753 455.000 M93.701 463.400 C 93.705 464.280,93.787 464.593,93.883 464.095 C 93.979 463.598,93.975 462.878,93.875 462.495 C 93.775 462.113,93.696 462.520,93.701 463.400 M93.676 484.600 C 93.614 495.380,93.465 506.207,93.345 508.661 L 93.127 513.121 95.201 514.163 C 97.285 515.210,97.878 515.303,105.600 515.799 C 107.910 515.948,110.250 516.177,110.800 516.308 C 112.338 516.674,228.357 516.733,237.200 516.373 C 241.490 516.197,247.520 516.032,250.600 516.006 C 257.551 515.945,263.640 515.588,263.433 515.253 C 263.348 515.114,259.435 515.136,254.739 515.303 C 232.800 516.083,214.102 516.274,167.400 516.199 C 139.680 516.155,116.460 516.017,115.800 515.893 C 115.140 515.769,112.620 515.560,110.200 515.430 C 99.410 514.847,97.732 514.687,96.212 514.097 C 95.326 513.752,94.510 513.394,94.400 513.302 C 94.290 513.209,94.107 502.304,93.994 489.067 L 93.788 465.000 93.676 484.600 " stroke="none" fill="#acd4dc" fill-rule="evenodd"></path></g></svg>